<?xml version="1.0" encoding="UTF-8" standalone="no"?>
<!-- Created with Inkscape (http://www.inkscape.org/) -->

<svg
   xmlns:dc="http://purl.org/dc/elements/1.1/"
   xmlns:cc="http://creativecommons.org/ns#"
   xmlns:rdf="http://www.w3.org/1999/02/22-rdf-syntax-ns#"
   xmlns:svg="http://www.w3.org/2000/svg"
   xmlns="http://www.w3.org/2000/svg"
   xmlns:sodipodi="http://sodipodi.sourceforge.net/DTD/sodipodi-0.dtd"
   xmlns:inkscape="http://www.inkscape.org/namespaces/inkscape"
   width="210mm"
   height="297mm"
   viewBox="0 0 210 297"
   version="1.1"
   id="svg8"
   inkscape:version="0.92.4 (5da689c313, 2019-01-14)"
   sodipodi:docname="wheel.svg">
  <defs
     id="defs2" />
  <sodipodi:namedview
     id="base"
     pagecolor="#ffffff"
     bordercolor="#666666"
     borderopacity="1.0"
     inkscape:pageopacity="0.0"
     inkscape:pageshadow="2"
     inkscape:zoom="1.4142136"
     inkscape:cx="202.33771"
     inkscape:cy="158.71435"
     inkscape:document-units="mm"
     inkscape:current-layer="layer1"
     showgrid="false"
     inkscape:window-width="1920"
     inkscape:window-height="1016"
     inkscape:window-x="0"
     inkscape:window-y="36"
     inkscape:window-maximized="1"
     inkscape:snap-global="true"
     inkscape:measure-start="31.9643,183.75"
     inkscape:measure-end="2.32143,186.429"
     inkscape:snap-bbox="false"
     inkscape:bbox-nodes="false"
     inkscape:bbox-paths="false"
     inkscape:snap-object-midpoints="true"
     inkscape:snap-center="true"
     inkscape:snap-page="true"
     inkscape:object-nodes="true"
     inkscape:snap-nodes="true"
     inkscape:object-paths="true"
     inkscape:snap-intersection-paths="false"
     inkscape:snap-smooth-nodes="false"
     inkscape:snap-midpoints="false" />
  <metadata
     id="metadata5">
    <rdf:RDF>
      <cc:Work
         rdf:about="">
        <dc:format>image/svg+xml</dc:format>
        <dc:type
           rdf:resource="http://purl.org/dc/dcmitype/StillImage" />
        <dc:title></dc:title>
      </cc:Work>
    </rdf:RDF>
  </metadata>
  <g
     inkscape:label="Layer 1"
     inkscape:groupmode="layer"
     id="layer1">
    <g
       id="g1675"
       transform="translate(-7.7437432,6.6854114)">
      <path
         inkscape:connector-curvature="0"
         id="path815-3"
         d="M 82.703591,252.8146 A 37.459829,37.459829 0 0 1 45.243761,290.27441 37.459829,37.459829 0 0 1 7.7839218,252.8146 37.459829,37.459829 0 0 1 45.243761,215.35477 37.459829,37.459829 0 0 1 82.703591,252.8146 Z"
         style="fill:none;fill-opacity:1;stroke:#000000;stroke-width:0.08035715;stroke-miterlimit:4;stroke-dasharray:none;stroke-opacity:1" />
      <path
         style="fill:none;fill-opacity:1;stroke:#000000;stroke-width:0.07499998;stroke-miterlimit:4;stroke-dasharray:none;stroke-opacity:1"
         d="m 75.240185,264.47265 a 0.71249998,0.71249995 0 0 1 0.48218,0.88478 0.71249998,0.71249995 0 0 1 -0.88478,0.48217 0.71249998,0.71249995 0 0 1 -0.48217,-0.88477 0.71249998,0.71249995 0 0 1 0.88477,-0.48218 z"
         id="path832-19-6-5-9"
         inkscape:connector-curvature="0" />
      <path
         style="fill:none;fill-opacity:1;stroke:#000000;stroke-width:0.07499998;stroke-miterlimit:4;stroke-dasharray:none;stroke-opacity:1"
         d="m 68.24927,274.9353 a 0.71249998,0.71249995 0 0 1 0.48218,0.88478 0.71249998,0.71249995 0 0 1 -0.88478,0.48217 0.71249998,0.71249995 0 0 1 -0.48217,-0.88477 0.71249998,0.71249995 0 0 1 0.88477,-0.48218 z"
         id="path832-19-6-5-6-47"
         inkscape:connector-curvature="0" />
      <path
         style="fill:none;fill-opacity:1;stroke:#000000;stroke-width:0.07499998;stroke-miterlimit:4;stroke-dasharray:none;stroke-opacity:1"
         d="m 57.786616,281.92623 a 0.71249998,0.71249995 0 0 1 0.48218,0.88478 0.71249998,0.71249995 0 0 1 -0.88478,0.48217 0.71249998,0.71249995 0 0 1 -0.48217,-0.88477 0.71249998,0.71249995 0 0 1 0.88477,-0.48218 z"
         id="path832-19-6-5-6-3-8"
         inkscape:connector-curvature="0" />
      <path
         style="fill:none;fill-opacity:1;stroke:#000000;stroke-width:0.07499998;stroke-miterlimit:4;stroke-dasharray:none;stroke-opacity:1"
         d="m 45.44507,284.38111 a 0.71249998,0.71249995 0 0 1 0.48218,0.88478 0.71249998,0.71249995 0 0 1 -0.88478,0.48217 0.71249998,0.71249995 0 0 1 -0.48217,-0.88477 0.71249998,0.71249995 0 0 1 0.88477,-0.48218 z"
         id="path832-19-6-5-6-1-4"
         inkscape:connector-curvature="0" />
      <path
         style="fill:none;fill-opacity:1;stroke:#000000;stroke-width:0.07499998;stroke-miterlimit:4;stroke-dasharray:none;stroke-opacity:1"
         d="m 33.103539,281.92623 a 0.71249998,0.71249995 0 0 1 0.48218,0.88478 0.71249998,0.71249995 0 0 1 -0.88478,0.48217 0.71249998,0.71249995 0 0 1 -0.48217,-0.88477 0.71249998,0.71249995 0 0 1 0.88477,-0.48218 z"
         id="path832-19-6-5-6-4-5"
         inkscape:connector-curvature="0" />
      <path
         style="fill:none;fill-opacity:1;stroke:#000000;stroke-width:0.07499998;stroke-miterlimit:4;stroke-dasharray:none;stroke-opacity:1"
         d="m 22.64088,274.93531 a 0.71249998,0.71249995 0 0 1 0.48218,0.88478 0.71249998,0.71249995 0 0 1 -0.88478,0.48217 0.71249998,0.71249995 0 0 1 -0.48217,-0.88477 0.71249998,0.71249995 0 0 1 0.88477,-0.48218 z"
         id="path832-19-6-5-6-9-0"
         inkscape:connector-curvature="0" />
      <path
         style="fill:none;fill-opacity:1;stroke:#000000;stroke-width:0.07499998;stroke-miterlimit:4;stroke-dasharray:none;stroke-opacity:1"
         d="m 15.649957,264.47265 a 0.71249998,0.71249995 0 0 1 0.48218,0.88478 0.71249998,0.71249995 0 0 1 -0.88478,0.48217 0.71249998,0.71249995 0 0 1 -0.48217,-0.88477 0.71249998,0.71249995 0 0 1 0.88477,-0.48218 z"
         id="path832-19-6-5-6-2-3"
         inkscape:connector-curvature="0" />
      <path
         style="fill:none;fill-opacity:1;stroke:#000000;stroke-width:0.07499998;stroke-miterlimit:4;stroke-dasharray:none;stroke-opacity:1"
         d="m 13.19507,252.13112 a 0.71249998,0.71249995 0 0 1 0.48218,0.88478 0.71249998,0.71249995 0 0 1 -0.88478,0.48217 0.71249998,0.71249995 0 0 1 -0.48217,-0.88477 0.71249998,0.71249995 0 0 1 0.88477,-0.48218 z"
         id="path832-19-6-5-6-0-6"
         inkscape:connector-curvature="0" />
      <path
         style="fill:none;fill-opacity:1;stroke:#000000;stroke-width:0.07499998;stroke-miterlimit:4;stroke-dasharray:none;stroke-opacity:1"
         d="m 15.649953,239.78958 a 0.71249998,0.71249995 0 0 1 0.48218,0.88478 0.71249998,0.71249995 0 0 1 -0.88478,0.48217 0.71249998,0.71249995 0 0 1 -0.48217,-0.88477 0.71249998,0.71249995 0 0 1 0.88477,-0.48218 z"
         id="path832-19-6-5-6-6-1"
         inkscape:connector-curvature="0" />
      <path
         style="fill:none;fill-opacity:1;stroke:#000000;stroke-width:0.07499998;stroke-miterlimit:4;stroke-dasharray:none;stroke-opacity:1"
         d="m 22.640876,229.32692 a 0.71249998,0.71249995 0 0 1 0.48218,0.88478 0.71249998,0.71249995 0 0 1 -0.88478,0.48217 0.71249998,0.71249995 0 0 1 -0.48217,-0.88477 0.71249998,0.71249995 0 0 1 0.88477,-0.48218 z"
         id="path832-19-6-5-6-8-0"
         inkscape:connector-curvature="0" />
      <path
         style="fill:none;fill-opacity:1;stroke:#000000;stroke-width:0.07499998;stroke-miterlimit:4;stroke-dasharray:none;stroke-opacity:1"
         d="m 33.103527,222.336 a 0.71249998,0.71249995 0 0 1 0.48218,0.88478 0.71249998,0.71249995 0 0 1 -0.88478,0.48217 0.71249998,0.71249995 0 0 1 -0.48217,-0.88477 0.71249998,0.71249995 0 0 1 0.88477,-0.48218 z"
         id="path832-19-6-5-6-92-6"
         inkscape:connector-curvature="0" />
      <path
         style="fill:none;fill-opacity:1;stroke:#000000;stroke-width:0.07499998;stroke-miterlimit:4;stroke-dasharray:none;stroke-opacity:1"
         d="m 45.445069,219.88111 a 0.71249998,0.71249995 0 0 1 0.48218,0.88478 0.71249998,0.71249995 0 0 1 -0.88478,0.48217 0.71249998,0.71249995 0 0 1 -0.48217,-0.88477 0.71249998,0.71249995 0 0 1 0.88477,-0.48218 z"
         id="path832-19-6-5-6-66-3"
         inkscape:connector-curvature="0" />
      <path
         style="fill:none;fill-opacity:1;stroke:#000000;stroke-width:0.07499998;stroke-miterlimit:4;stroke-dasharray:none;stroke-opacity:1"
         d="m 57.78661,222.336 a 0.71249998,0.71249995 0 0 1 0.48218,0.88478 0.71249998,0.71249995 0 0 1 -0.88478,0.48217 0.71249998,0.71249995 0 0 1 -0.48217,-0.88477 0.71249998,0.71249995 0 0 1 0.88477,-0.48218 z"
         id="path832-19-6-5-6-49-2"
         inkscape:connector-curvature="0" />
      <path
         style="fill:none;fill-opacity:1;stroke:#000000;stroke-width:0.07499998;stroke-miterlimit:4;stroke-dasharray:none;stroke-opacity:1"
         d="m 68.249264,229.32692 a 0.71249998,0.71249995 0 0 1 0.48218,0.88478 0.71249998,0.71249995 0 0 1 -0.88478,0.48217 0.71249998,0.71249995 0 0 1 -0.48217,-0.88477 0.71249998,0.71249995 0 0 1 0.88477,-0.48218 z"
         id="path832-19-6-5-6-5-0"
         inkscape:connector-curvature="0" />
      <path
         style="fill:none;fill-opacity:1;stroke:#000000;stroke-width:0.07499998;stroke-miterlimit:4;stroke-dasharray:none;stroke-opacity:1"
         d="m 75.240183,239.78957 a 0.71249998,0.71249995 0 0 1 0.48218,0.88478 0.71249998,0.71249995 0 0 1 -0.88478,0.48217 0.71249998,0.71249995 0 0 1 -0.48217,-0.88477 0.71249998,0.71249995 0 0 1 0.88477,-0.48218 z"
         id="path832-19-6-5-6-04-6"
         inkscape:connector-curvature="0" />
      <path
         style="fill:none;fill-opacity:1;stroke:#000000;stroke-width:0.07499998;stroke-miterlimit:4;stroke-dasharray:none;stroke-opacity:1"
         d="m 77.69507,252.13111 a 0.71249998,0.71249995 0 0 1 0.48218,0.88478 0.71249998,0.71249995 0 0 1 -0.88478,0.48217 0.71249998,0.71249995 0 0 1 -0.48217,-0.88477 0.71249998,0.71249995 0 0 1 0.88477,-0.48218 z"
         id="path832-19-6-5-6-87-1"
         inkscape:connector-curvature="0" />
      <path
         sodipodi:nodetypes="ssccsssccss"
         inkscape:connector-curvature="0"
         id="path1871"
         d="m 47.337339,252.81112 c 0,0.22138 -0.03435,0.43474 -0.09804,0.63502 -0.0705,0.22178 -0.312525,0.6104 -0.312525,0.6104 l -3.365865,2.4e-4 c 0,0 -0.23742,-0.37966 -0.307953,-0.59592 -0.06674,-0.20454 -0.102782,-0.42293 -0.102782,-0.64974 0,-0.22933 0.03683,-0.45003 0.105013,-0.65654 0.06956,-0.21087 0.300595,-0.58218 0.300595,-0.58218 l 3.378136,0.003 c 0,0 0.217415,0.34704 0.286094,0.54299 0.07597,0.21683 0.117326,0.44996 0.117326,0.69274 z"
         style="fill:none;fill-opacity:1;stroke:#000000;stroke-width:0.08545233;stroke-miterlimit:4;stroke-dasharray:none;stroke-opacity:1" />
      <g
         transform="rotate(90.72,44.438695,297.24667)"
         inkscape:transform-center-y="-0.00038900163"
         inkscape:transform-center-x="-2.7317343"
         id="g1489">
        <g
           id="g1472">
          <path
             transform="rotate(127.14734)"
             sodipodi:open="true"
             d="m 262.69911,-179.34848 a 25.964828,25.964828 0 0 1 -7.33745,18.08849"
             sodipodi:end="0.77072202"
             sodipodi:start="0"
             sodipodi:ry="25.964828"
             sodipodi:rx="25.964828"
             sodipodi:cy="-179.34848"
             sodipodi:cx="236.73428"
             sodipodi:type="arc"
             id="path889-3-2"
             style="opacity:0.98000004;fill:none;fill-opacity:1;stroke:#000000;stroke-width:0.07801151;stroke-miterlimit:4;stroke-dasharray:none" />
          <path
             transform="rotate(127.14734)"
             sodipodi:open="true"
             d="m 258.91409,-179.34845 a 22.179789,22.179789 0 0 1 -6.26784,15.45163"
             sodipodi:end="0.77072202"
             sodipodi:start="0"
             sodipodi:ry="22.179789"
             sodipodi:rx="22.179789"
             sodipodi:cy="-179.34845"
             sodipodi:cx="236.7343"
             sodipodi:type="arc"
             id="path889-3-2-5"
             style="opacity:0.98000004;fill:none;fill-opacity:1;stroke:#000000;stroke-width:0.0741573;stroke-miterlimit:4;stroke-dasharray:none" />
          <path
             inkscape:connector-curvature="0"
             id="path1174"
             d="m -13.393603,314.67918 -2.285627,3.01701"
             style="fill:none;stroke:#000000;stroke-width:0.075;stroke-linecap:butt;stroke-linejoin:miter;stroke-miterlimit:4;stroke-dasharray:none;stroke-opacity:1" />
          <path
             inkscape:connector-curvature="0"
             id="path1176"
             d="m -21.924929,300.35247 -3.74152,0.5721"
             style="fill:none;stroke:#000000;stroke-width:0.075;stroke-linecap:butt;stroke-linejoin:miter;stroke-miterlimit:4;stroke-dasharray:none;stroke-opacity:1" />
        </g>
        <g
           id="g1466">
          <path
             transform="rotate(-112.61266)"
             sodipodi:open="true"
             d="m -248.20341,-114.19624 a 25.964828,25.964828 0 0 1 -7.33746,18.088483"
             sodipodi:end="0.77072202"
             sodipodi:start="0"
             sodipodi:ry="25.964828"
             sodipodi:rx="25.964828"
             sodipodi:cy="-114.19624"
             sodipodi:cx="-274.16824"
             sodipodi:type="arc"
             id="path889-3-9"
             style="opacity:0.98000004;fill:none;fill-opacity:1;stroke:#000000;stroke-width:0.07801151;stroke-miterlimit:4;stroke-dasharray:none" />
          <path
             transform="rotate(-112.61266)"
             sodipodi:open="true"
             d="m -251.98845,-114.19627 a 22.179789,22.179789 0 0 1 -6.26784,15.451621"
             sodipodi:end="0.77072202"
             sodipodi:start="0"
             sodipodi:ry="22.179789"
             sodipodi:rx="22.179789"
             sodipodi:cy="-114.19627"
             sodipodi:cx="-274.16824"
             sodipodi:type="arc"
             id="path889-3-9-7"
             style="opacity:0.98000004;fill:none;fill-opacity:1;stroke:#000000;stroke-width:0.0741573;stroke-miterlimit:4;stroke-dasharray:none" />
          <path
             inkscape:connector-curvature="0"
             id="path1178"
             d="m -8.5280877,276.52528 -1.455324,-3.49406"
             style="fill:none;stroke:#000000;stroke-width:0.075;stroke-linecap:butt;stroke-linejoin:miter;stroke-miterlimit:4;stroke-dasharray:none;stroke-opacity:1" />
          <path
             inkscape:connector-curvature="0"
             id="path1180"
             d="m 9.5357743,272.84958 -1.390098,3.52058"
             style="fill:none;stroke:#000000;stroke-width:0.075;stroke-linecap:butt;stroke-linejoin:miter;stroke-miterlimit:4;stroke-dasharray:none;stroke-opacity:1" />
        </g>
        <g
           id="g1460">
          <path
             transform="rotate(7.2673444)"
             id="path889-3"
             style="opacity:0.98000004;fill:none;fill-opacity:1;stroke:#000000;stroke-width:0.07801151;stroke-miterlimit:4;stroke-dasharray:none"
             d="m 63.535152,294.61411 a 25.964828,25.964828 0 0 1 -7.337456,18.08848"
             sodipodi:type="arc"
             sodipodi:open="true"
             sodipodi:start="0"
             sodipodi:end="0.77072202"
             sodipodi:ry="25.964828"
             sodipodi:rx="25.964828"
             sodipodi:cy="294.61411"
             sodipodi:cx="37.570324" />
          <path
             transform="rotate(7.2673441)"
             sodipodi:open="true"
             d="m 59.750067,294.61411 a 22.179789,22.179789 0 0 1 -6.267834,15.45162"
             sodipodi:end="0.77072202"
             sodipodi:start="0"
             sodipodi:ry="22.179789"
             sodipodi:rx="22.179789"
             sodipodi:cy="294.61411"
             sodipodi:cx="37.570278"
             sodipodi:type="arc"
             id="path889-3-3"
             style="opacity:0.98000004;fill:none;fill-opacity:1;stroke:#000000;stroke-width:0.0741573;stroke-miterlimit:4;stroke-dasharray:none" />
          <path
             inkscape:connector-curvature="0"
             id="path1182"
             d="m 22.001608,299.80573 3.754678,0.47879"
             style="fill:none;stroke:#000000;stroke-width:0.075;stroke-linecap:butt;stroke-linejoin:miter;stroke-miterlimit:4;stroke-dasharray:none;stroke-opacity:1"
             sodipodi:nodetypes="cc" />
          <path
             inkscape:connector-curvature="0"
             id="path1184"
             d="m 13.829507,314.34035 2.360086,2.95918"
             style="fill:none;stroke:#000000;stroke-width:0.075;stroke-linecap:butt;stroke-linejoin:miter;stroke-miterlimit:4;stroke-dasharray:none;stroke-opacity:1" />
        </g>
      </g>
      <path
         style="fill:none;fill-opacity:1;stroke:#000000;stroke-width:0.07499998;stroke-miterlimit:4;stroke-dasharray:none;stroke-opacity:1"
         d="m 40.445044,260.79136 a 0.71249998,0.71249995 0 0 1 0.48218,0.88478 0.71249998,0.71249995 0 0 1 -0.88478,0.48217 0.71249998,0.71249995 0 0 1 -0.48217,-0.88477 0.71249998,0.71249995 0 0 1 0.88477,-0.48218 z"
         id="path832-19-6-5-9-5"
         inkscape:connector-curvature="0" />
      <path
         style="fill:none;fill-opacity:1;stroke:#000000;stroke-width:0.07499998;stroke-miterlimit:4;stroke-dasharray:none;stroke-opacity:1"
         d="m 40.445042,243.47085 a 0.71249998,0.71249995 0 0 1 0.48218,0.88478 0.71249998,0.71249995 0 0 1 -0.88478,0.48217 0.71249998,0.71249995 0 0 1 -0.48217,-0.88477 0.71249998,0.71249995 0 0 1 0.88477,-0.48218 z"
         id="path832-19-6-5-9-54"
         inkscape:connector-curvature="0" />
      <path
         style="fill:none;fill-opacity:1;stroke:#000000;stroke-width:0.07499998;stroke-miterlimit:4;stroke-dasharray:none;stroke-opacity:1"
         d="m 55.445043,252.1311 a 0.71249998,0.71249995 0 0 1 0.48218,0.88478 0.71249998,0.71249995 0 0 1 -0.88478,0.48217 0.71249998,0.71249995 0 0 1 -0.48217,-0.88477 0.71249998,0.71249995 0 0 1 0.88477,-0.48218 z"
         id="path832-19-6-5-9-7"
         inkscape:connector-curvature="0" />
    </g>
    <g
       id="g1636"
       transform="translate(-26.56659,-0.04017857)">
      <circle
         r="25.961"
         cy="259.54016"
         cx="140.9908"
         id="path889-3-1"
         style="opacity:1;fill:none;fill-opacity:1;stroke:#000000;stroke-width:0.078;stroke-miterlimit:4;stroke-dasharray:none" />
      <path
         sodipodi:nodetypes="ssccsssccss"
         inkscape:connector-curvature="0"
         id="path1871-0"
         d="m 143.08432,259.53671 c 0,0.22138 -0.0344,0.43474 -0.098,0.63502 -0.0705,0.22178 -0.31252,0.6104 -0.31252,0.6104 l -3.36587,2.4e-4 c 0,0 -0.23742,-0.37966 -0.30795,-0.59592 -0.0667,-0.20454 -0.10278,-0.42293 -0.10278,-0.64974 0,-0.22933 0.0368,-0.45003 0.10501,-0.65654 0.0696,-0.21087 0.30059,-0.58218 0.30059,-0.58218 l 3.37814,0.003 c 0,0 0.21741,0.34704 0.2861,0.54299 0.076,0.21683 0.11732,0.44996 0.11732,0.69274 z"
         style="fill:none;fill-opacity:1;stroke:#000000;stroke-width:0.08545233;stroke-miterlimit:4;stroke-dasharray:none;stroke-opacity:1" />
      <path
         inkscape:connector-curvature="0"
         id="path815-3-6"
         d="M 178.45057,259.54019 A 37.45983,37.45983 0 0 1 140.99074,297 37.45983,37.45983 0 0 1 103.5309,259.54019 a 37.45983,37.45983 0 0 1 37.45984,-37.45983 37.45983,37.45983 0 0 1 37.45983,37.45983 z"
         style="fill:none;fill-opacity:1;stroke:#000000;stroke-width:0.08035715;stroke-miterlimit:4;stroke-dasharray:none;stroke-opacity:1" />
      <path
         style="fill:none;fill-opacity:1;stroke:#000000;stroke-width:0.07499998;stroke-miterlimit:4;stroke-dasharray:none;stroke-opacity:1"
         d="m 170.98717,271.19824 a 0.71249998,0.71249995 0 0 1 0.48218,0.88478 0.71249998,0.71249995 0 0 1 -0.88478,0.48217 0.71249998,0.71249995 0 0 1 -0.48217,-0.88477 0.71249998,0.71249995 0 0 1 0.88477,-0.48218 z"
         id="path832-19-6-5-9-56"
         inkscape:connector-curvature="0" />
      <path
         style="fill:none;fill-opacity:1;stroke:#000000;stroke-width:0.07499998;stroke-miterlimit:4;stroke-dasharray:none;stroke-opacity:1"
         d="m 163.99625,281.66089 a 0.71249998,0.71249995 0 0 1 0.48218,0.88478 0.71249998,0.71249995 0 0 1 -0.88478,0.48217 0.71249998,0.71249995 0 0 1 -0.48217,-0.88477 0.71249998,0.71249995 0 0 1 0.88477,-0.48218 z"
         id="path832-19-6-5-6-47-9"
         inkscape:connector-curvature="0" />
      <path
         style="fill:none;fill-opacity:1;stroke:#000000;stroke-width:0.07499998;stroke-miterlimit:4;stroke-dasharray:none;stroke-opacity:1"
         d="m 153.5336,288.65182 a 0.71249998,0.71249995 0 0 1 0.48218,0.88478 0.71249998,0.71249995 0 0 1 -0.88478,0.48217 0.71249998,0.71249995 0 0 1 -0.48217,-0.88477 0.71249998,0.71249995 0 0 1 0.88477,-0.48218 z"
         id="path832-19-6-5-6-3-8-3"
         inkscape:connector-curvature="0" />
      <path
         style="fill:none;fill-opacity:1;stroke:#000000;stroke-width:0.07499998;stroke-miterlimit:4;stroke-dasharray:none;stroke-opacity:1"
         d="m 141.19205,291.1067 a 0.71249998,0.71249995 0 0 1 0.48218,0.88478 0.71249998,0.71249995 0 0 1 -0.88478,0.48217 0.71249998,0.71249995 0 0 1 -0.48217,-0.88477 0.71249998,0.71249995 0 0 1 0.88477,-0.48218 z"
         id="path832-19-6-5-6-1-4-7"
         inkscape:connector-curvature="0" />
      <path
         style="fill:none;fill-opacity:1;stroke:#000000;stroke-width:0.07499998;stroke-miterlimit:4;stroke-dasharray:none;stroke-opacity:1"
         d="m 128.85052,288.65182 a 0.71249998,0.71249995 0 0 1 0.48218,0.88478 0.71249998,0.71249995 0 0 1 -0.88478,0.48217 0.71249998,0.71249995 0 0 1 -0.48217,-0.88477 0.71249998,0.71249995 0 0 1 0.88477,-0.48218 z"
         id="path832-19-6-5-6-4-5-4"
         inkscape:connector-curvature="0" />
      <path
         style="fill:none;fill-opacity:1;stroke:#000000;stroke-width:0.07499998;stroke-miterlimit:4;stroke-dasharray:none;stroke-opacity:1"
         d="m 118.38786,281.6609 a 0.71249998,0.71249995 0 0 1 0.48218,0.88478 0.71249998,0.71249995 0 0 1 -0.88478,0.48217 0.71249998,0.71249995 0 0 1 -0.48217,-0.88477 0.71249998,0.71249995 0 0 1 0.88477,-0.48218 z"
         id="path832-19-6-5-6-9-0-5"
         inkscape:connector-curvature="0" />
      <path
         style="fill:none;fill-opacity:1;stroke:#000000;stroke-width:0.07499998;stroke-miterlimit:4;stroke-dasharray:none;stroke-opacity:1"
         d="m 111.39694,271.19824 a 0.71249998,0.71249995 0 0 1 0.48218,0.88478 0.71249998,0.71249995 0 0 1 -0.88478,0.48217 0.71249998,0.71249995 0 0 1 -0.48217,-0.88477 0.71249998,0.71249995 0 0 1 0.88477,-0.48218 z"
         id="path832-19-6-5-6-2-3-2"
         inkscape:connector-curvature="0" />
      <path
         style="fill:none;fill-opacity:1;stroke:#000000;stroke-width:0.07499998;stroke-miterlimit:4;stroke-dasharray:none;stroke-opacity:1"
         d="m 108.94205,258.85671 a 0.71249998,0.71249995 0 0 1 0.48218,0.88478 0.71249998,0.71249995 0 0 1 -0.88478,0.48217 0.71249998,0.71249995 0 0 1 -0.48217,-0.88477 0.71249998,0.71249995 0 0 1 0.88477,-0.48218 z"
         id="path832-19-6-5-6-0-6-5"
         inkscape:connector-curvature="0" />
      <path
         style="fill:none;fill-opacity:1;stroke:#000000;stroke-width:0.07499998;stroke-miterlimit:4;stroke-dasharray:none;stroke-opacity:1"
         d="m 111.39693,246.51517 a 0.71249998,0.71249995 0 0 1 0.48218,0.88478 0.71249998,0.71249995 0 0 1 -0.88478,0.48217 0.71249998,0.71249995 0 0 1 -0.48217,-0.88477 0.71249998,0.71249995 0 0 1 0.88477,-0.48218 z"
         id="path832-19-6-5-6-6-1-4"
         inkscape:connector-curvature="0" />
      <path
         style="fill:none;fill-opacity:1;stroke:#000000;stroke-width:0.07499998;stroke-miterlimit:4;stroke-dasharray:none;stroke-opacity:1"
         d="m 118.38786,236.05251 a 0.71249998,0.71249995 0 0 1 0.48218,0.88478 0.71249998,0.71249995 0 0 1 -0.88478,0.48217 0.71249998,0.71249995 0 0 1 -0.48217,-0.88477 0.71249998,0.71249995 0 0 1 0.88477,-0.48218 z"
         id="path832-19-6-5-6-8-0-7"
         inkscape:connector-curvature="0" />
      <path
         style="fill:none;fill-opacity:1;stroke:#000000;stroke-width:0.07499998;stroke-miterlimit:4;stroke-dasharray:none;stroke-opacity:1"
         d="m 128.85051,229.06159 a 0.71249998,0.71249995 0 0 1 0.48218,0.88478 0.71249998,0.71249995 0 0 1 -0.88478,0.48217 0.71249998,0.71249995 0 0 1 -0.48217,-0.88477 0.71249998,0.71249995 0 0 1 0.88477,-0.48218 z"
         id="path832-19-6-5-6-92-6-4"
         inkscape:connector-curvature="0" />
      <path
         style="fill:none;fill-opacity:1;stroke:#000000;stroke-width:0.07499998;stroke-miterlimit:4;stroke-dasharray:none;stroke-opacity:1"
         d="m 141.19205,226.6067 a 0.71249998,0.71249995 0 0 1 0.48218,0.88478 0.71249998,0.71249995 0 0 1 -0.88478,0.48217 0.71249998,0.71249995 0 0 1 -0.48217,-0.88477 0.71249998,0.71249995 0 0 1 0.88477,-0.48218 z"
         id="path832-19-6-5-6-66-3-4"
         inkscape:connector-curvature="0" />
      <path
         style="fill:none;fill-opacity:1;stroke:#000000;stroke-width:0.07499998;stroke-miterlimit:4;stroke-dasharray:none;stroke-opacity:1"
         d="m 153.53359,229.06159 a 0.71249998,0.71249995 0 0 1 0.48218,0.88478 0.71249998,0.71249995 0 0 1 -0.88478,0.48217 0.71249998,0.71249995 0 0 1 -0.48217,-0.88477 0.71249998,0.71249995 0 0 1 0.88477,-0.48218 z"
         id="path832-19-6-5-6-49-2-3"
         inkscape:connector-curvature="0" />
      <path
         style="fill:none;fill-opacity:1;stroke:#000000;stroke-width:0.07499998;stroke-miterlimit:4;stroke-dasharray:none;stroke-opacity:1"
         d="m 163.99625,236.05251 a 0.71249998,0.71249995 0 0 1 0.48218,0.88478 0.71249998,0.71249995 0 0 1 -0.88478,0.48217 0.71249998,0.71249995 0 0 1 -0.48217,-0.88477 0.71249998,0.71249995 0 0 1 0.88477,-0.48218 z"
         id="path832-19-6-5-6-5-0-0"
         inkscape:connector-curvature="0" />
      <path
         style="fill:none;fill-opacity:1;stroke:#000000;stroke-width:0.07499998;stroke-miterlimit:4;stroke-dasharray:none;stroke-opacity:1"
         d="m 170.98717,246.51516 a 0.71249998,0.71249995 0 0 1 0.48218,0.88478 0.71249998,0.71249995 0 0 1 -0.88478,0.48217 0.71249998,0.71249995 0 0 1 -0.48218,-0.88477 0.71249998,0.71249995 0 0 1 0.88478,-0.48218 z"
         id="path832-19-6-5-6-04-6-7"
         inkscape:connector-curvature="0" />
      <path
         style="fill:none;fill-opacity:1;stroke:#000000;stroke-width:0.07499998;stroke-miterlimit:4;stroke-dasharray:none;stroke-opacity:1"
         d="m 173.44205,258.8567 a 0.71249998,0.71249995 0 0 1 0.48218,0.88478 0.71249998,0.71249995 0 0 1 -0.88478,0.48217 0.71249998,0.71249995 0 0 1 -0.48217,-0.88477 0.71249998,0.71249995 0 0 1 0.88477,-0.48218 z"
         id="path832-19-6-5-6-87-1-8"
         inkscape:connector-curvature="0" />
      <path
         style="fill:none;fill-opacity:1;stroke:#000000;stroke-width:0.07499998;stroke-miterlimit:4;stroke-dasharray:none;stroke-opacity:1"
         d="m 136.19203,267.51695 a 0.71249998,0.71249995 0 0 1 0.48218,0.88478 0.71249998,0.71249995 0 0 1 -0.88478,0.48217 0.71249998,0.71249995 0 0 1 -0.48217,-0.88477 0.71249998,0.71249995 0 0 1 0.88477,-0.48218 z"
         id="path832-19-6-5-9-5-5"
         inkscape:connector-curvature="0" />
      <path
         style="fill:none;fill-opacity:1;stroke:#000000;stroke-width:0.07499998;stroke-miterlimit:4;stroke-dasharray:none;stroke-opacity:1"
         d="m 136.19202,250.19644 a 0.71249998,0.71249995 0 0 1 0.48218,0.88478 0.71249998,0.71249995 0 0 1 -0.88478,0.48217 0.71249998,0.71249995 0 0 1 -0.48217,-0.88477 0.71249998,0.71249995 0 0 1 0.88477,-0.48218 z"
         id="path832-19-6-5-9-54-0"
         inkscape:connector-curvature="0" />
      <path
         style="fill:none;fill-opacity:1;stroke:#000000;stroke-width:0.07499998;stroke-miterlimit:4;stroke-dasharray:none;stroke-opacity:1"
         d="m 151.19203,258.85669 a 0.71249998,0.71249995 0 0 1 0.48217,0.88478 0.71249998,0.71249995 0 0 1 -0.88478,0.48217 0.71249998,0.71249995 0 0 1 -0.48216,-0.88477 0.71249998,0.71249995 0 0 1 0.88477,-0.48218 z"
         id="path832-19-6-5-9-7-4"
         inkscape:connector-curvature="0" />
    </g>
  </g>
</svg>
