<?xml version="1.0" encoding="UTF-8" standalone="no"?>
<!-- Created with Inkscape (http://www.inkscape.org/) -->

<svg
   xmlns:dc="http://purl.org/dc/elements/1.1/"
   xmlns:cc="http://creativecommons.org/ns#"
   xmlns:rdf="http://www.w3.org/1999/02/22-rdf-syntax-ns#"
   xmlns:svg="http://www.w3.org/2000/svg"
   xmlns="http://www.w3.org/2000/svg"
   xmlns:sodipodi="http://sodipodi.sourceforge.net/DTD/sodipodi-0.dtd"
   xmlns:inkscape="http://www.inkscape.org/namespaces/inkscape"
   width="210mm"
   height="297mm"
   viewBox="0 0 210 297"
   version="1.1"
   id="svg1085"
   inkscape:version="0.92.4 (5da689c313, 2019-01-14)"
   sodipodi:docname="barrel.svg">
  <defs
     id="defs1079" />
  <sodipodi:namedview
     id="base"
     pagecolor="#ffffff"
     bordercolor="#666666"
     borderopacity="1.0"
     inkscape:pageopacity="0.0"
     inkscape:pageshadow="2"
     inkscape:zoom="0.64144687"
     inkscape:cx="221.75584"
     inkscape:cy="448.92011"
     inkscape:document-units="mm"
     inkscape:current-layer="layer1"
     showgrid="false"
     inkscape:window-width="1920"
     inkscape:window-height="1017"
     inkscape:window-x="-8"
     inkscape:window-y="-8"
     inkscape:window-maximized="1"
     inkscape:snap-global="false" />
  <metadata
     id="metadata1082">
    <rdf:RDF>
      <cc:Work
         rdf:about="">
        <dc:format>image/svg+xml</dc:format>
        <dc:type
           rdf:resource="http://purl.org/dc/dcmitype/StillImage" />
        <dc:title></dc:title>
      </cc:Work>
    </rdf:RDF>
  </metadata>
  <g
     inkscape:label="Layer 1"
     inkscape:groupmode="layer"
     id="layer1">
    <path
       style="fill:none;fill-opacity:1;stroke:#000000;stroke-width:0.1;stroke-miterlimit:4;stroke-dasharray:none;stroke-opacity:1"
       d="M 0,297 V 81 h 70 v 216 z"
       id="path1828"
       inkscape:connector-curvature="0"
       sodipodi:nodetypes="ccccc" />
    <path
       style="fill:none;fill-opacity:1;stroke:#000000;stroke-width:0.09999999;stroke-miterlimit:4;stroke-dasharray:none;stroke-opacity:1"
       d="m 172.69723,246.87729 -18.92198,18.90833 h -4.41267 v 5.00001 h -17.9 v -5.00001 h -4.43699 l -18.90774,-18.93265 v -4.41309 h -5 v -17.9 h 5 v -4.4374 l 18.93206,-18.90834 h 4.41267 v -5.00001 h 17.9 v 5.00001 h 4.43698 l 18.89767,18.93265 v 4.41309 h 5.01008 v 17.9 h -5.01008 z"
       id="path1832"
       inkscape:connector-curvature="0"
       sodipodi:nodetypes="ccccccccccccccccccccccccc" />
    <path
       style="fill:none;fill-opacity:1;stroke:#000000;stroke-width:0.1;stroke-miterlimit:4;stroke-dasharray:none;stroke-opacity:1"
       d="m 142.86258,233.48582 c 0,0.25907 -0.0402,0.50875 -0.11473,0.74313 -0.0825,0.25953 -0.36573,0.71432 -0.36573,0.71432 l -3.93888,2.8e-4 c 0,0 -0.27784,-0.4443 -0.36038,-0.69738 -0.0781,-0.23936 -0.12028,-0.49493 -0.12028,-0.76035 0,-0.26837 0.0431,-0.52665 0.12289,-0.76831 0.0814,-0.24677 0.35177,-0.68129 0.35177,-0.68129 l 3.95324,0.003 c 0,0 0.25443,0.40613 0.3348,0.63544 0.0889,0.25374 0.1373,0.52656 0.1373,0.81067 z"
       id="path1871"
       inkscape:connector-curvature="0"
       sodipodi:nodetypes="ssccsssccss" />
    <path
       style="fill:none;fill-opacity:1;stroke:#000000;stroke-width:0.10000002;stroke-miterlimit:4;stroke-dasharray:none;stroke-opacity:1"
       d="m 16.049999,258.04999 h 5.9 v 25.9 h -5.9 z"
       id="rect1884" />
    <path
       style="fill:none;fill-opacity:1;stroke:#000000;stroke-width:0.10000002;stroke-miterlimit:4;stroke-dasharray:none;stroke-opacity:1"
       d="m 16.049999,203.33755 h 5.9 v 25.9 h -5.9 z"
       id="rect1884-0" />
    <path
       style="fill:none;fill-opacity:1;stroke:#000000;stroke-width:0.10000002;stroke-miterlimit:4;stroke-dasharray:none;stroke-opacity:1"
       d="m 16.049999,148.62509 h 5.9 v 25.9 h -5.9 z"
       id="rect1884-1" />
    <path
       style="fill:none;fill-opacity:1;stroke:#000000;stroke-width:0.10000002;stroke-miterlimit:4;stroke-dasharray:none;stroke-opacity:1"
       d="m 16.049999,93.912651 h 5.9 v 25.899999 h -5.9 z"
       id="rect1884-4" />
  </g>
</svg>
