<?xml version="1.0" encoding="UTF-8" standalone="no"?>
<!-- Created with Inkscape (http://www.inkscape.org/) -->

<svg
   xmlns:dc="http://purl.org/dc/elements/1.1/"
   xmlns:cc="http://creativecommons.org/ns#"
   xmlns:rdf="http://www.w3.org/1999/02/22-rdf-syntax-ns#"
   xmlns:svg="http://www.w3.org/2000/svg"
   xmlns="http://www.w3.org/2000/svg"
   xmlns:sodipodi="http://sodipodi.sourceforge.net/DTD/sodipodi-0.dtd"
   xmlns:inkscape="http://www.inkscape.org/namespaces/inkscape"
   width="210mm"
   height="297mm"
   viewBox="0 0 210 297"
   version="1.1"
   id="svg8"
   inkscape:version="0.92.4 (5da689c313, 2019-01-14)"
   sodipodi:docname="wheel.svg">
  <defs
     id="defs2" />
  <sodipodi:namedview
     id="base"
     pagecolor="#ffffff"
     bordercolor="#666666"
     borderopacity="1.0"
     inkscape:pageopacity="0.0"
     inkscape:pageshadow="2"
     inkscape:zoom="1.4"
     inkscape:cx="-84.536558"
     inkscape:cy="63.728962"
     inkscape:document-units="mm"
     inkscape:current-layer="layer1"
     showgrid="false"
     inkscape:window-width="1920"
     inkscape:window-height="1017"
     inkscape:window-x="-8"
     inkscape:window-y="-8"
     inkscape:window-maximized="1"
     inkscape:snap-global="false" />
  <metadata
     id="metadata5">
    <rdf:RDF>
      <cc:Work
         rdf:about="">
        <dc:format>image/svg+xml</dc:format>
        <dc:type
           rdf:resource="http://purl.org/dc/dcmitype/StillImage" />
        <dc:title />
      </cc:Work>
    </rdf:RDF>
  </metadata>
  <g
     inkscape:label="Layer 1"
     inkscape:groupmode="layer"
     id="layer1">
    <path
       style="fill:none;fill-opacity:1;stroke:#000000;stroke-width:0.09999999;stroke-miterlimit:4;stroke-dasharray:none;stroke-opacity:1"
       d="M 59.950001,297 A 59.950001,59.950001 0 0 1 -2.9802315e-8,356.95 59.950001,59.950001 0 0 1 -59.950001,297 59.950001,59.950001 0 0 1 -2.980233e-8,237.05 59.950001,59.950001 0 0 1 59.950001,297 Z"
       id="path815" />
    <path
       transform="rotate(-69.474257)"
       style="fill:none;fill-opacity:1;stroke:#000000;stroke-width:0.09999998;stroke-miterlimit:4;stroke-dasharray:none;stroke-opacity:1"
       d="m -267.20445,153.12831 a 0.94999999,0.94999999 0 0 1 -0.95,0.95 0.94999999,0.94999999 0 0 1 -0.95,-0.95 0.94999999,0.94999999 0 0 1 0.95,-0.95 0.94999999,0.94999999 0 0 1 0.95,0.95 z"
       id="path832" />
    <path
       transform="rotate(31.940082)"
       style="fill:none;fill-opacity:1;stroke:#000000;stroke-width:0.09999999;stroke-miterlimit:4;stroke-dasharray:none;stroke-opacity:1"
       d="m 206.59995,239.98938 a 0.94999999,0.94999999 0 0 1 -0.95,0.95 0.94999999,0.94999999 0 0 1 -0.95,-0.95 0.94999999,0.94999999 0 0 1 0.95,-0.95 0.94999999,0.94999999 0 0 1 0.95,0.95 z"
       id="path832-9" />
    <path
       transform="rotate(43.615648)"
       style="fill:none;fill-opacity:1;stroke:#000000;stroke-width:0.09999999;stroke-miterlimit:4;stroke-dasharray:none;stroke-opacity:1"
       d="m 253.73795,200.72557 a 0.94999999,0.94999999 0 0 1 -0.95,0.95 0.94999999,0.94999999 0 0 1 -0.95,-0.95 0.94999999,0.94999999 0 0 1 0.95,-0.95 0.94999999,0.94999999 0 0 1 0.95,0.95 z"
       id="path832-96" />
    <path
       transform="rotate(55.74719)"
       style="fill:none;fill-opacity:1;stroke:#000000;stroke-width:0.09999999;stroke-miterlimit:4;stroke-dasharray:none;stroke-opacity:1"
       d="m 293.49858,150.27158 a 0.94999999,0.94999999 0 0 1 -0.95,0.95 0.94999999,0.94999999 0 0 1 -0.95,-0.95 0.94999999,0.94999999 0 0 1 0.95,-0.95 0.94999999,0.94999999 0 0 1 0.95,0.95 z"
       id="path832-1" />
    <path
       transform="rotate(68.639724)"
       style="fill:none;fill-opacity:1;stroke:#000000;stroke-width:0.09999999;stroke-miterlimit:4;stroke-dasharray:none;stroke-opacity:1"
       d="m 323.35289,88.127426 a 0.94999999,0.94999999 0 0 1 -0.95,0.95 0.94999999,0.94999999 0 0 1 -0.95,-0.95 0.94999999,0.94999999 0 0 1 0.95,-0.95 0.94999999,0.94999999 0 0 1 0.95,0.95 z"
       id="path832-5" />
    <path
       transform="rotate(82.819997)"
       style="fill:none;fill-opacity:1;stroke:#000000;stroke-width:0.09999999;stroke-miterlimit:4;stroke-dasharray:none;stroke-opacity:1"
       d="m 339.42797,13.018137 a 0.94999999,0.94999999 0 0 1 -0.95,0.95 0.94999999,0.94999999 0 0 1 -0.95,-0.95 0.94999999,0.94999999 0 0 1 0.95,-0.95 0.94999999,0.94999999 0 0 1 0.95,0.95 z"
       id="path832-6" />
    <path
       transform="rotate(99.276728)"
       style="fill:none;fill-opacity:1;stroke:#000000;stroke-width:0.09999999;stroke-miterlimit:4;stroke-dasharray:none;stroke-opacity:1"
       d="m 334.37404,-77.461578 a 0.94999999,0.94999999 0 0 1 -0.95,0.95 0.94999999,0.94999999 0 0 1 -0.95,-0.95 0.94999999,0.94999999 0 0 1 0.95,-0.95 0.94999999,0.94999999 0 0 1 0.95,0.95 z"
       id="path832-0" />
    <path
       transform="rotate(119.98651)"
       style="fill:none;fill-opacity:1;stroke:#000000;stroke-width:0.09999999;stroke-miterlimit:4;stroke-dasharray:none;stroke-opacity:1"
       d="m 291.65981,-185.58879 a 0.94999999,0.94999999 0 0 1 -0.95,0.95 0.94999999,0.94999999 0 0 1 -0.95,-0.95 0.94999999,0.94999999 0 0 1 0.95,-0.95 0.94999999,0.94999999 0 0 1 0.95,0.95 z"
       id="path832-56" />
    <path
       transform="rotate(148.52742)"
       style="fill:none;fill-opacity:1;stroke:#000000;stroke-width:0.09999999;stroke-miterlimit:4;stroke-dasharray:none;stroke-opacity:1"
       d="m 175.12291,-299.51151 a 0.94999999,0.94999999 0 0 1 -0.95,0.95 0.94999999,0.94999999 0 0 1 -0.95,-0.95 0.94999999,0.94999999 0 0 1 0.95,-0.95 0.94999999,0.94999999 0 0 1 0.95,0.95 z"
       id="path832-7" />
    <path
       transform="rotate(-173.07691)"
       style="fill:none;fill-opacity:1;stroke:#000000;stroke-width:0.09999999;stroke-miterlimit:4;stroke-dasharray:none;stroke-opacity:1"
       d="m -40.876305,-344.46997 a 0.94999999,0.94999999 0 0 1 -0.95,0.95 0.94999999,0.94999999 0 0 1 -0.95,-0.95 0.94999999,0.94999999 0 0 1 0.95,-0.95 0.94999999,0.94999999 0 0 1 0.95,0.95 z"
       id="path832-3" />
    <path
       transform="rotate(-134.68153)"
       style="fill:none;fill-opacity:1;stroke:#000000;stroke-width:0.09999999;stroke-miterlimit:4;stroke-dasharray:none;stroke-opacity:1"
       d="m -239.83845,-249.12701 a 0.94999999,0.94999999 0 0 1 -0.95,0.95 0.94999999,0.94999999 0 0 1 -0.95,-0.95 0.94999999,0.94999999 0 0 1 0.95,-0.95 0.94999999,0.94999999 0 0 1 0.95,0.95 z"
       id="path832-2" />
    <path
       transform="rotate(-106.14043)"
       style="fill:none;fill-opacity:1;stroke:#000000;stroke-width:0.09999999;stroke-miterlimit:4;stroke-dasharray:none;stroke-opacity:1"
       d="m -325.72645,-110.62493 a 0.94999999,0.94999999 0 0 1 -0.95,0.95 0.94999999,0.94999999 0 0 1 -0.95,-0.95 0.94999999,0.94999999 0 0 1 0.95,-0.95 0.94999999,0.94999999 0 0 1 0.95,0.95 z"
       id="path832-565" />
    <path
       transform="rotate(-85.430682)"
       style="fill:none;fill-opacity:1;stroke:#000000;stroke-width:0.09999999;stroke-miterlimit:4;stroke-dasharray:none;stroke-opacity:1"
       d="m -341.32313,4.582283 a 0.94999999,0.94999999 0 0 1 -0.95,0.95 0.94999999,0.94999999 0 0 1 -0.95,-0.95 0.94999999,0.94999999 0 0 1 0.95,-0.95 0.94999999,0.94999999 0 0 1 0.95,0.95 z"
       id="path832-18" />
    <path
       transform="rotate(-68.97346)"
       style="fill:none;fill-opacity:1;stroke:#000000;stroke-width:0.09999999;stroke-miterlimit:4;stroke-dasharray:none;stroke-opacity:1"
       d="m -324.57634,93.645111 a 0.94999999,0.94999999 0 0 1 -0.95,0.95 0.94999999,0.94999999 0 0 1 -0.95,-0.95 0.94999999,0.94999999 0 0 1 0.95,-0.95 0.94999999,0.94999999 0 0 1 0.95,0.95 z"
       id="path832-00" />
    <path
       transform="rotate(-54.793918)"
       style="fill:none;fill-opacity:1;stroke:#000000;stroke-width:0.09999999;stroke-miterlimit:4;stroke-dasharray:none;stroke-opacity:1"
       d="m -290.99516,162.72092 a 0.94999999,0.94999999 0 0 1 -0.95,0.95 0.94999999,0.94999999 0 0 1 -0.95,-0.95 0.94999999,0.94999999 0 0 1 0.95,-0.95 0.94999999,0.94999999 0 0 1 0.95,0.95 z"
       id="path832-8" />
    <path
       transform="rotate(-41.901228)"
       style="fill:none;fill-opacity:1;stroke:#000000;stroke-width:0.09999999;stroke-miterlimit:4;stroke-dasharray:none;stroke-opacity:1"
       d="m -247.13604,215.9156 a 0.94999999,0.94999999 0 0 1 -0.95,0.95 0.94999999,0.94999999 0 0 1 -0.95,-0.95 0.94999999,0.94999999 0 0 1 0.95,-0.95 0.94999999,0.94999999 0 0 1 0.95,0.95 z"
       id="path832-57" />
    <path
       transform="rotate(-29.769354)"
       style="fill:none;fill-opacity:1;stroke:#000000;stroke-width:0.09999999;stroke-miterlimit:4;stroke-dasharray:none;stroke-opacity:1"
       d="m -196.45498,255.38948 a 0.94999999,0.94999999 0 0 1 -0.95,0.95 0.94999999,0.94999999 0 0 1 -0.95,-0.95 0.94999999,0.94999999 0 0 1 0.95,-0.95 0.94999999,0.94999999 0 0 1 0.95,0.95 z"
       id="path832-967" />
    <path
       transform="rotate(-18.0935)"
       style="fill:none;fill-opacity:1;stroke:#000000;stroke-width:0.09999999;stroke-miterlimit:4;stroke-dasharray:none;stroke-opacity:1"
       d="m -141.2888,282.23206 a 0.94999999,0.94999999 0 0 1 -0.95,0.95 0.94999999,0.94999999 0 0 1 -0.95,-0.95 0.94999999,0.94999999 0 0 1 0.95,-0.95 0.94999999,0.94999999 0 0 1 0.95,0.95 z"
       id="path832-97" />
    <path
       transform="rotate(-6.6792155)"
       style="fill:none;fill-opacity:1;stroke:#000000;stroke-width:0.09999999;stroke-miterlimit:4;stroke-dasharray:none;stroke-opacity:1"
       d="m -83.553197,297.00894 a 0.94999999,0.94999999 0 0 1 -0.95,0.95 0.94999999,0.94999999 0 0 1 -0.95,-0.95 0.94999999,0.94999999 0 0 1 0.95,-0.95 0.94999999,0.94999999 0 0 1 0.95,0.95 z"
       id="path832-28" />
    <path
       transform="rotate(4.6155745)"
       style="fill:none;fill-opacity:1;stroke:#000000;stroke-width:0.09999999;stroke-miterlimit:4;stroke-dasharray:none;stroke-opacity:1"
       d="m -24.988307,300.06033 a 0.94999999,0.94999999 0 0 1 -0.95,0.95 0.94999999,0.94999999 0 0 1 -0.95,-0.95 0.94999999,0.94999999 0 0 1 0.95,-0.95 0.94999999,0.94999999 0 0 1 0.95,0.95 z"
       id="path832-70" />
    <path
       transform="rotate(15.910182)"
       style="fill:none;fill-opacity:1;stroke:#000000;stroke-width:0.09999999;stroke-miterlimit:4;stroke-dasharray:none;stroke-opacity:1"
       d="m 32.729858,291.63837 a 0.94999999,0.94999999 0 0 1 -0.95,0.95 0.94999999,0.94999999 0 0 1 -0.95,-0.95 0.94999999,0.94999999 0 0 1 0.95,-0.95 0.94999999,0.94999999 0 0 1 0.95,0.95 z"
       id="path832-701" />
    <path
       transform="rotate(27.32428)"
       style="fill:none;fill-opacity:1;stroke:#000000;stroke-width:0.09999999;stroke-miterlimit:4;stroke-dasharray:none;stroke-opacity:1"
       d="m 87.941394,271.96268 a 0.94999999,0.94999999 0 0 1 -0.95,0.95 0.94999999,0.94999999 0 0 1 -0.95,-0.95 0.94999999,0.94999999 0 0 1 0.95,-0.95 0.94999999,0.94999999 0 0 1 0.95,0.95 z"
       id="path832-23" />
    <path
       transform="rotate(38.999445)"
       style="fill:none;fill-opacity:1;stroke:#000000;stroke-width:0.09999999;stroke-miterlimit:4;stroke-dasharray:none;stroke-opacity:1"
       d="m 138.94844,241.20927 a 0.94999999,0.94999999 0 0 1 -0.95,0.95 0.94999999,0.94999999 0 0 1 -0.95,-0.95 0.94999999,0.94999999 0 0 1 0.95,-0.95 0.94999999,0.94999999 0 0 1 0.95,0.95 z"
       id="path832-94" />
    <path
       transform="rotate(51.131815)"
       style="fill:none;fill-opacity:1;stroke:#000000;stroke-width:0.09999999;stroke-miterlimit:4;stroke-dasharray:none;stroke-opacity:1"
       d="m 183.92536,199.42868 a 0.94999999,0.94999999 0 0 1 -0.95,0.95 0.94999999,0.94999999 0 0 1 -0.95,-0.95 0.94999999,0.94999999 0 0 1 0.95,-0.95 0.94999999,0.94999999 0 0 1 0.95,0.95 z"
       id="path832-4" />
    <path
       transform="rotate(64.024899)"
       style="fill:none;fill-opacity:1;stroke:#000000;stroke-width:0.09999999;stroke-miterlimit:4;stroke-dasharray:none;stroke-opacity:1"
       d="m 220.67952,146.37917 a 0.94999999,0.94999999 0 0 1 -0.95,0.95 0.94999999,0.94999999 0 0 1 -0.95,-0.95 0.94999999,0.94999999 0 0 1 0.95,-0.95 0.94999999,0.94999999 0 0 1 0.95,0.95 z"
       id="path832-49" />
    <path
       transform="rotate(78.204482)"
       style="fill:none;fill-opacity:1;stroke:#000000;stroke-width:0.09999999;stroke-miterlimit:4;stroke-dasharray:none;stroke-opacity:1"
       d="m 246.07396,81.212296 a 0.94999999,0.94999999 0 0 1 -0.95,0.95 0.94999999,0.94999999 0 0 1 -0.95,-0.95 0.94999999,0.94999999 0 0 1 0.95,-0.95 0.94999999,0.94999999 0 0 1 0.95,0.95 z"
       id="path832-74" />
    <path
       transform="rotate(94.661176)"
       style="fill:none;fill-opacity:1;stroke:#000000;stroke-width:0.09999999;stroke-miterlimit:4;stroke-dasharray:none;stroke-opacity:1"
       d="m 254.40938,2.1095862 a 0.94999999,0.94999999 0 0 1 -0.95,0.95 0.94999999,0.94999999 0 0 1 -0.95,-0.95 0.94999999,0.94999999 0 0 1 0.95,-0.9499999 0.94999999,0.94999999 0 0 1 0.95,0.9499999 z"
       id="path832-85" />
    <path
       transform="rotate(115.37132)"
       style="fill:none;fill-opacity:1;stroke:#000000;stroke-width:0.09999999;stroke-miterlimit:4;stroke-dasharray:none;stroke-opacity:1"
       d="m 232.95841,-92.923225 a 0.94999999,0.94999999 0 0 1 -0.95,0.95 0.94999999,0.94999999 0 0 1 -0.95,-0.95 0.94999999,0.94999999 0 0 1 0.95,-0.95 0.94999999,0.94999999 0 0 1 0.95,0.95 z"
       id="path832-14" />
    <path
       transform="rotate(143.91213)"
       style="fill:none;fill-opacity:1;stroke:#000000;stroke-width:0.09999999;stroke-miterlimit:4;stroke-dasharray:none;stroke-opacity:1"
       d="m 153.12267,-195.4946 a 0.94999999,0.94999999 0 0 1 -0.95,0.95 0.94999999,0.94999999 0 0 1 -0.95,-0.95 0.94999999,0.94999999 0 0 1 0.95,-0.95 0.94999999,0.94999999 0 0 1 0.95,0.95 z"
       id="path832-51" />
    <path
       transform="rotate(-177.69227)"
       style="fill:none;fill-opacity:1;stroke:#000000;stroke-width:0.09999999;stroke-miterlimit:4;stroke-dasharray:none;stroke-opacity:1"
       d="m -8.9958695,-246.79967 a 0.94999999,0.94999999 0 0 1 -0.9499999,0.95 0.94999999,0.94999999 0 0 1 -0.9499996,-0.95 0.94999999,0.94999999 0 0 1 0.9499996,-0.95 0.94999999,0.94999999 0 0 1 0.9499999,0.95 z"
       id="path832-43" />
    <path
       transform="rotate(-139.29674)"
       style="fill:none;fill-opacity:1;stroke:#000000;stroke-width:0.09999999;stroke-miterlimit:4;stroke-dasharray:none;stroke-opacity:1"
       d="m -166.46003,-182.61581 a 0.94999999,0.94999999 0 0 1 -0.95,0.95 0.94999999,0.94999999 0 0 1 -0.95,-0.95 0.94999999,0.94999999 0 0 1 0.95,-0.95 0.94999999,0.94999999 0 0 1 0.95,0.95 z"
       id="path832-32" />
    <path
       transform="rotate(-110.75571)"
       style="fill:none;fill-opacity:1;stroke:#000000;stroke-width:0.09999999;stroke-miterlimit:4;stroke-dasharray:none;stroke-opacity:1"
       d="m -237.78357,-73.952065 a 0.94999999,0.94999999 0 0 1 -0.95,0.95 0.94999999,0.94999999 0 0 1 -0.95,-0.95 0.94999999,0.94999999 0 0 1 0.95,-0.95 0.94999999,0.94999999 0 0 1 0.95,0.95 z"
       id="path832-93" />
    <path
       transform="rotate(-90.045818)"
       style="fill:none;fill-opacity:1;stroke:#000000;stroke-width:0.09999999;stroke-miterlimit:4;stroke-dasharray:none;stroke-opacity:1"
       d="m -251.51774,22.497646 a 0.94999999,0.94999999 0 0 1 -0.95,0.95 0.94999999,0.94999999 0 0 1 -0.95,-0.95 0.94999999,0.94999999 0 0 1 0.95,-0.95 0.94999999,0.94999999 0 0 1 0.95,0.95 z"
       id="path832-60" />
    <path
       transform="rotate(-73.589116)"
       style="fill:none;fill-opacity:1;stroke:#000000;stroke-width:0.09999999;stroke-miterlimit:4;stroke-dasharray:none;stroke-opacity:1"
       d="m -236.84427,100.67316 a 0.94999999,0.94999999 0 0 1 -0.95,0.95 0.94999999,0.94999999 0 0 1 -0.95,-0.95 0.94999999,0.94999999 0 0 1 0.95,-0.950003 0.94999999,0.94999999 0 0 1 0.95,0.950003 z"
       id="path832-19" />
    <path
       transform="rotate(-59.409479)"
       style="fill:none;fill-opacity:1;stroke:#000000;stroke-width:0.09999999;stroke-miterlimit:4;stroke-dasharray:none;stroke-opacity:1"
       d="m -206.2883,163.58551 a 0.94999999,0.94999999 0 0 1 -0.95,0.95 0.94999999,0.94999999 0 0 1 -0.95,-0.95 0.94999999,0.94999999 0 0 1 0.95,-0.95 0.94999999,0.94999999 0 0 1 0.95,0.95 z"
       id="path832-95" />
    <path
       transform="rotate(-46.516022)"
       style="fill:none;fill-opacity:1;stroke:#000000;stroke-width:0.09999999;stroke-miterlimit:4;stroke-dasharray:none;stroke-opacity:1"
       d="m -165.38316,213.50658 a 0.94999999,0.94999999 0 0 1 -0.95,0.95 0.94999999,0.94999999 0 0 1 -0.95,-0.95 0.94999999,0.94999999 0 0 1 0.95,-0.95 0.94999999,0.94999999 0 0 1 0.95,0.95 z"
       id="path832-03" />
    <path
       transform="rotate(-34.384684)"
       style="fill:none;fill-opacity:1;stroke:#000000;stroke-width:0.09999999;stroke-miterlimit:4;stroke-dasharray:none;stroke-opacity:1"
       d="m -117.1944,251.53008 a 0.94999999,0.94999999 0 0 1 -0.95,0.95 0.94999999,0.94999999 0 0 1 -0.95,-0.95 0.94999999,0.94999999 0 0 1 0.95,-0.95 0.94999999,0.94999999 0 0 1 0.95,0.95 z"
       id="path832-706" />
    <path
       transform="rotate(-22.709646)"
       style="fill:none;fill-opacity:1;stroke:#000000;stroke-width:0.09999999;stroke-miterlimit:4;stroke-dasharray:none;stroke-opacity:1"
       d="m -63.879033,278.07983 a 0.94999999,0.94999999 0 0 1 -0.95,0.95 0.94999999,0.94999999 0 0 1 -0.95,-0.95 0.94999999,0.94999999 0 0 1 0.95,-0.95 0.94999999,0.94999999 0 0 1 0.95,0.95 z"
       id="path832-71" />
    <path
       transform="rotate(-11.295072)"
       style="fill:none;fill-opacity:1;stroke:#000000;stroke-width:0.09999999;stroke-miterlimit:4;stroke-dasharray:none;stroke-opacity:1"
       d="m -7.2610634,293.24985 a 0.94999999,0.94999999 0 0 1 -0.95,0.95 0.94999999,0.94999999 0 0 1 -0.95,-0.95 0.94999999,0.94999999 0 0 1 0.95,-0.95 0.94999999,0.94999999 0 0 1 0.95,0.95 z"
       id="path832-55" />
    <path
       style="fill:none;fill-opacity:1;stroke:#000000;stroke-width:0.09999999;stroke-miterlimit:4;stroke-dasharray:none;stroke-opacity:1"
       d="m 50.950027,297 a 0.94999999,0.94999999 0 0 1 -0.95,0.95 0.94999999,0.94999999 0 0 1 -0.95,-0.95 0.94999999,0.94999999 0 0 1 0.95,-0.95 0.94999999,0.94999999 0 0 1 0.95,0.95 z"
       id="path832-88" />
    <path
       style="fill:#000000;fill-opacity:1;stroke:none;stroke-width:0.10000001;stroke-miterlimit:4;stroke-dasharray:none;stroke-opacity:1"
       d="m 1,297 a 1,1 0 0 1 -1,1 1,1 0 0 1 -1,-1 1,1 0 0 1 1,-1 1,1 0 0 1 1,1 z"
       id="path1077" />
    <path
       style="fill:none;fill-opacity:1;stroke:#000000;stroke-width:0.1;stroke-miterlimit:4;stroke-dasharray:none;stroke-opacity:1"
       d="M 7.6952342e-6,297 -40.000012,297"
       id="path1630-1-2-6-8-2"
       inkscape:connector-curvature="0" />
    <path
       style="fill:none;fill-opacity:1;stroke:#000000;stroke-width:0.09999999;stroke-miterlimit:4;stroke-dasharray:none;stroke-opacity:1"
       d="M 39.950001,297 A 39.950001,39.950001 0 0 1 -2.980232e-8,336.95 39.950001,39.950001 0 0 1 -39.950001,297 39.950001,39.950001 0 0 1 -2.980233e-8,257.05 39.950001,39.950001 0 0 1 39.950001,297 Z"
       id="path815-7" />
    <path
       style="fill:none;fill-opacity:1;stroke:#000000;stroke-width:0.1;stroke-miterlimit:4;stroke-dasharray:none;stroke-opacity:1"
       d="M -8.764091e-6,297 28.284292,325.28427"
       id="path1630-1-2-6-8"
       inkscape:connector-curvature="0" />
    <path
       style="fill:none;fill-opacity:1;stroke:#000000;stroke-width:0.1;stroke-miterlimit:4;stroke-dasharray:none;stroke-opacity:1"
       d="M 4.8695407e-7,296.99999 0,337.00001"
       id="path1630-1-2-6-8-4"
       inkscape:connector-curvature="0" />
    <path
       style="fill:none;fill-opacity:1;stroke:#000000;stroke-width:0.1;stroke-miterlimit:4;stroke-dasharray:none;stroke-opacity:1"
       d="M 5.7139806e-6,296.99999 -28.284271,325.28428"
       id="path1630-1-2-6-8-8"
       inkscape:connector-curvature="0" />
    <path
       style="fill:none;fill-opacity:1;stroke:#000000;stroke-width:0.1;stroke-miterlimit:4;stroke-dasharray:none;stroke-opacity:1"
       d="M 5.5113238e-6,297 -28.284283,268.71572"
       id="path1630-1-2-6-8-0"
       inkscape:connector-curvature="0" />
    <path
       style="fill:none;fill-opacity:1;stroke:#000000;stroke-width:0.1;stroke-miterlimit:4;stroke-dasharray:none;stroke-opacity:1"
       d="M 1.5000004e-6,297.00001 -3.248456e-6,256.99999"
       id="path1630-1-2-6-8-1"
       inkscape:connector-curvature="0" />
    <path
       style="fill:none;fill-opacity:1;stroke:#000000;stroke-width:0.1;stroke-miterlimit:4;stroke-dasharray:none;stroke-opacity:1"
       d="M -3.3900035e-6,297 28.28428,268.71572"
       id="path1630-1-2-6-8-3"
       inkscape:connector-curvature="0" />
    <path
       style="fill:none;fill-opacity:1;stroke:#000000;stroke-width:0.1;stroke-miterlimit:4;stroke-dasharray:none;stroke-opacity:1"
       d="M -9.44369e-6,297 H 40.000011"
       id="path1630-1-2-6-8-4-1"
       inkscape:connector-curvature="0" />
  </g>
</svg>
