<?xml version="1.0" encoding="UTF-8" standalone="no"?>
<!-- Created with Inkscape (http://www.inkscape.org/) -->

<svg
   xmlns:dc="http://purl.org/dc/elements/1.1/"
   xmlns:cc="http://creativecommons.org/ns#"
   xmlns:rdf="http://www.w3.org/1999/02/22-rdf-syntax-ns#"
   xmlns:svg="http://www.w3.org/2000/svg"
   xmlns="http://www.w3.org/2000/svg"
   xmlns:sodipodi="http://sodipodi.sourceforge.net/DTD/sodipodi-0.dtd"
   xmlns:inkscape="http://www.inkscape.org/namespaces/inkscape"
   width="210mm"
   height="297mm"
   viewBox="0 0 210 297"
   version="1.1"
   id="svg8"
   inkscape:version="0.92.4 (5da689c313, 2019-01-14)"
   sodipodi:docname="wheel.svg">
  <defs
     id="defs2" />
  <sodipodi:namedview
     id="base"
     pagecolor="#ffffff"
     bordercolor="#666666"
     borderopacity="1.0"
     inkscape:pageopacity="0.0"
     inkscape:pageshadow="2"
     inkscape:zoom="1"
     inkscape:cx="262.85027"
     inkscape:cy="215.48281"
     inkscape:document-units="mm"
     inkscape:current-layer="layer1"
     showgrid="false"
     inkscape:window-width="1366"
     inkscape:window-height="704"
     inkscape:window-x="0"
     inkscape:window-y="36"
     inkscape:window-maximized="1"
     inkscape:snap-global="true"
     inkscape:measure-start="31.9643,183.75"
     inkscape:measure-end="2.32143,186.429"
     inkscape:snap-bbox="false"
     inkscape:bbox-nodes="false"
     inkscape:bbox-paths="false" />
  <metadata
     id="metadata5">
    <rdf:RDF>
      <cc:Work
         rdf:about="">
        <dc:format>image/svg+xml</dc:format>
        <dc:type
           rdf:resource="http://purl.org/dc/dcmitype/StillImage" />
        <dc:title />
      </cc:Work>
    </rdf:RDF>
  </metadata>
  <g
     inkscape:label="Layer 1"
     inkscape:groupmode="layer"
     id="layer1">
    <path
       style="fill:none;fill-opacity:1;stroke:#000000;stroke-width:0.09999997;stroke-miterlimit:4;stroke-dasharray:none;stroke-opacity:1"
       d="m 138.19107,222.91667 a 59.949998,59.949998 0 0 1 -59.950002,59.95 59.949998,59.949998 0 0 1 -59.949998,-59.95 59.949998,59.949998 0 0 1 59.949998,-59.95 59.949998,59.949998 0 0 1 59.950002,59.95 z"
       id="path815"
       inkscape:connector-curvature="0" />
    <g
       id="g3968">
      <path
         inkscape:connector-curvature="0"
         id="path832"
         d="m 131.77668,213.80977 a 0.71249996,0.71249996 0 0 1 0.41744,0.91709 0.71249996,0.71249996 0 0 1 -0.91709,0.41745 0.71249996,0.71249996 0 0 1 -0.41745,-0.9171 0.71249996,0.71249996 0 0 1 0.9171,-0.41744 z"
         style="fill:none;fill-opacity:1;stroke:#000000;stroke-width:0.07499998;stroke-miterlimit:4;stroke-dasharray:none;stroke-opacity:1" />
      <path
         inkscape:connector-curvature="0"
         id="path832-9"
         d="m 130.15519,206.62215 a 0.71249995,0.71249995 0 0 1 -0.98156,0.22769 0.71249995,0.71249995 0 0 1 -0.2277,-0.98156 0.71249995,0.71249995 0 0 1 0.98157,-0.2277 0.71249995,0.71249995 0 0 1 0.22769,0.98157 z"
         style="fill:none;fill-opacity:1;stroke:#000000;stroke-width:0.07499998;stroke-miterlimit:4;stroke-dasharray:none;stroke-opacity:1" />
      <path
         inkscape:connector-curvature="0"
         id="path832-96"
         d="m 126.82675,198.91537 a 0.71249995,0.71249996 0 0 1 -1.00733,0.0244 0.71249995,0.71249996 0 0 1 -0.0244,-1.00734 0.71249995,0.71249996 0 0 1 1.00734,-0.0243 0.71249995,0.71249996 0 0 1 0.0243,1.00734 z"
         style="fill:none;fill-opacity:1;stroke:#000000;stroke-width:0.07499998;stroke-miterlimit:4;stroke-dasharray:none;stroke-opacity:1" />
      <path
         inkscape:connector-curvature="0"
         id="path832-1"
         d="m 122.28856,191.79458 a 0.71249995,0.71249996 0 0 1 -0.98996,-0.1879 0.71249995,0.71249996 0 0 1 0.1879,-0.98994 0.71249995,0.71249996 0 0 1 0.98996,0.18789 0.71249995,0.71249996 0 0 1 -0.1879,0.98995 z"
         style="fill:none;fill-opacity:1;stroke:#000000;stroke-width:0.07499998;stroke-miterlimit:4;stroke-dasharray:none;stroke-opacity:1" />
      <path
         inkscape:connector-curvature="0"
         id="path832-5"
         d="m 116.649,185.43184 a 0.71249996,0.71249996 0 0 1 -0.92307,-0.40404 0.71249996,0.71249996 0 0 1 0.40404,-0.92307 0.71249996,0.71249996 0 0 1 0.92307,0.40404 0.71249996,0.71249996 0 0 1 -0.40404,0.92307 z"
         style="fill:none;fill-opacity:1;stroke:#000000;stroke-width:0.07499998;stroke-miterlimit:4;stroke-dasharray:none;stroke-opacity:1" />
      <path
         inkscape:connector-curvature="0"
         id="path832-6"
         d="m 110.04115,179.97713 a 0.71249996,0.71249995 0 0 1 -0.79597,-0.61786 0.71249996,0.71249995 0 0 1 0.61786,-0.79596 0.71249996,0.71249995 0 0 1 0.79596,0.61785 0.71249996,0.71249995 0 0 1 -0.61785,0.79597 z"
         style="fill:none;fill-opacity:1;stroke:#000000;stroke-width:0.07499998;stroke-miterlimit:4;stroke-dasharray:none;stroke-opacity:1" />
      <path
         inkscape:connector-curvature="0"
         id="path832-0"
         d="m 102.619,175.55007 a 0.71249995,0.71249996 0 0 1 -0.58833,-0.81805 0.71249995,0.71249996 0 0 1 0.81804,-0.58833 0.71249995,0.71249996 0 0 1 0.58833,0.81805 0.71249995,0.71249996 0 0 1 -0.81804,0.58833 z"
         style="fill:none;fill-opacity:1;stroke:#000000;stroke-width:0.07499998;stroke-miterlimit:4;stroke-dasharray:none;stroke-opacity:1" />
      <path
         inkscape:connector-curvature="0"
         id="path832-56"
         d="m 94.556437,172.22431 a 0.71249995,0.71249995 0 0 1 -0.261022,-0.97325 0.71249995,0.71249995 0 0 1 0.973232,-0.26101 0.71249995,0.71249995 0 0 1 0.261022,0.97322 0.71249995,0.71249995 0 0 1 -0.973232,0.26104 z"
         style="fill:none;fill-opacity:1;stroke:#000000;stroke-width:0.07499998;stroke-miterlimit:4;stroke-dasharray:none;stroke-opacity:1" />
      <path
         inkscape:connector-curvature="0"
         id="path832-7"
         d="m 86.073025,170.00287 a 0.71249996,0.71249995 0 0 1 0.235695,-0.97966 0.71249996,0.71249995 0 0 1 0.979674,0.23569 0.71249996,0.71249995 0 0 1 -0.235695,0.97967 0.71249996,0.71249995 0 0 1 -0.979674,-0.2357 z"
         style="fill:none;fill-opacity:1;stroke:#000000;stroke-width:0.07499998;stroke-miterlimit:4;stroke-dasharray:none;stroke-opacity:1" />
      <path
         inkscape:connector-curvature="0"
         id="path832-3"
         d="m 77.533762,168.88078 a 0.71249995,0.71249995 0 0 1 0.793186,-0.62141 0.71249995,0.71249995 0 0 1 0.621423,0.79317 0.71249995,0.71249995 0 0 1 -0.793188,0.62143 0.71249995,0.71249995 0 0 1 -0.621421,-0.79319 z"
         style="fill:none;fill-opacity:1;stroke:#000000;stroke-width:0.07499998;stroke-miterlimit:4;stroke-dasharray:none;stroke-opacity:1" />
      <path
         inkscape:connector-curvature="0"
         id="path832-2"
         d="m 69.300418,169.12464 a 0.71249995,0.71249996 0 0 1 1.007611,0.005 0.71249995,0.71249996 0 0 1 -0.0055,1.00762 0.71249995,0.71249996 0 0 1 -1.007611,-0.006 0.71249995,0.71249996 0 0 1 0.0055,-1.00761 z"
         style="fill:none;fill-opacity:1;stroke:#000000;stroke-width:0.07499998;stroke-miterlimit:4;stroke-dasharray:none;stroke-opacity:1" />
      <path
         inkscape:connector-curvature="0"
         id="path832-565"
         d="m 61.371524,170.92277 a 0.71249995,0.71249995 0 0 1 0.882486,0.48634 0.71249995,0.71249995 0 0 1 -0.486345,0.88248 0.71249995,0.71249995 0 0 1 -0.882486,-0.48634 0.71249995,0.71249995 0 0 1 0.486345,-0.88248 z"
         style="fill:none;fill-opacity:1;stroke:#000000;stroke-width:0.07499998;stroke-miterlimit:4;stroke-dasharray:none;stroke-opacity:1" />
      <path
         inkscape:connector-curvature="0"
         id="path832-18"
         d="m 53.805052,174.13663 a 0.71249995,0.71249996 0 0 1 0.653474,0.767 0.71249995,0.71249996 0 0 1 -0.766996,0.65347 0.71249995,0.71249996 0 0 1 -0.653475,-0.76699 0.71249995,0.71249996 0 0 1 0.766997,-0.65348 z"
         style="fill:none;fill-opacity:1;stroke:#000000;stroke-width:0.07499998;stroke-miterlimit:4;stroke-dasharray:none;stroke-opacity:1" />
      <path
         inkscape:connector-curvature="0"
         id="path832-00"
         d="m 46.785692,178.60516 a 0.71249996,0.71249995 0 0 1 0.409412,0.9207 0.71249996,0.71249995 0 0 1 -0.920703,0.40941 0.71249996,0.71249995 0 0 1 -0.409412,-0.9207 0.71249996,0.71249995 0 0 1 0.920703,-0.40941 z"
         style="fill:none;fill-opacity:1;stroke:#000000;stroke-width:0.07499998;stroke-miterlimit:4;stroke-dasharray:none;stroke-opacity:1" />
      <path
         inkscape:connector-curvature="0"
         id="path832-8"
         d="m 40.503431,184.18608 a 0.71249996,0.71249996 0 0 1 0.171402,0.99294 0.71249996,0.71249996 0 0 1 -0.992942,0.17139 0.71249996,0.71249996 0 0 1 -0.171401,-0.99293 0.71249996,0.71249996 0 0 1 0.992941,-0.1714 z"
         style="fill:none;fill-opacity:1;stroke:#000000;stroke-width:0.07499998;stroke-miterlimit:4;stroke-dasharray:none;stroke-opacity:1" />
      <path
         inkscape:connector-curvature="0"
         id="path832-57"
         d="m 35.12492,190.72983 a 0.71249996,0.71249996 0 0 1 -0.05447,1.00615 0.71249996,0.71249996 0 0 1 -1.006154,-0.0545 0.71249996,0.71249996 0 0 1 0.05447,-1.00616 0.71249996,0.71249996 0 0 1 1.006153,0.0545 z"
         style="fill:none;fill-opacity:1;stroke:#000000;stroke-width:0.07499998;stroke-miterlimit:4;stroke-dasharray:none;stroke-opacity:1" />
      <path
         inkscape:connector-curvature="0"
         id="path832-967"
         d="m 30.789734,198.07012 a 0.71249995,0.71249995 0 0 1 -0.264709,0.97224 0.71249995,0.71249995 0 0 1 -0.972236,-0.26472 0.71249995,0.71249995 0 0 1 0.264709,-0.97222 0.71249995,0.71249995 0 0 1 0.972236,0.2647 z"
         style="fill:none;fill-opacity:1;stroke:#000000;stroke-width:0.07499998;stroke-miterlimit:4;stroke-dasharray:none;stroke-opacity:1" />
      <path
         inkscape:connector-curvature="0"
         id="path832-97"
         d="m 27.608835,206.02391 a 0.71249995,0.71249995 0 0 1 -0.455986,0.89855 0.71249995,0.71249995 0 0 1 -0.898548,-0.45599 0.71249995,0.71249995 0 0 1 0.455986,-0.89854 0.71249995,0.71249995 0 0 1 0.898548,0.45598 z"
         style="fill:none;fill-opacity:1;stroke:#000000;stroke-width:0.07499998;stroke-miterlimit:4;stroke-dasharray:none;stroke-opacity:1" />
      <path
         inkscape:connector-curvature="0"
         id="path832-28"
         d="m 25.662941,214.39416 a 0.71249996,0.71249996 0 0 1 -0.624794,0.79054 0.71249996,0.71249996 0 0 1 -0.790535,-0.62479 0.71249996,0.71249996 0 0 1 0.624793,-0.79054 0.71249996,0.71249996 0 0 1 0.790536,0.62479 z"
         style="fill:none;fill-opacity:1;stroke:#000000;stroke-width:0.07499998;stroke-miterlimit:4;stroke-dasharray:none;stroke-opacity:1" />
      <path
         inkscape:connector-curvature="0"
         id="path832-70"
         d="m 25.001253,222.97401 a 0.71249996,0.71249995 0 0 1 -0.767523,0.65285 0.71249996,0.71249995 0 0 1 -0.652854,-0.76752 0.71249996,0.71249995 0 0 1 0.767524,-0.65286 0.71249996,0.71249995 0 0 1 0.652853,0.76753 z"
         style="fill:none;fill-opacity:1;stroke:#000000;stroke-width:0.07499998;stroke-miterlimit:4;stroke-dasharray:none;stroke-opacity:1" />
      <path
         inkscape:connector-curvature="0"
         id="path832-701"
         d="m 25.640484,231.55162 a 0.71249995,0.71249995 0 0 1 -0.880524,0.4899 0.71249995,0.71249995 0 0 1 -0.489889,-0.88053 0.71249995,0.71249995 0 0 1 0.880524,-0.48989 0.71249995,0.71249995 0 0 1 0.489889,0.88052 z"
         style="fill:none;fill-opacity:1;stroke:#000000;stroke-width:0.07499998;stroke-miterlimit:4;stroke-dasharray:none;stroke-opacity:1" />
      <path
         inkscape:connector-curvature="0"
         id="path832-23"
         d="m 27.564569,239.91519 a 0.71249996,0.71249996 0 0 1 -0.960057,0.30595 0.71249996,0.71249996 0 0 1 -0.305946,-0.96006 0.71249996,0.71249996 0 0 1 0.960058,-0.30595 0.71249996,0.71249996 0 0 1 0.305945,0.96006 z"
         style="fill:none;fill-opacity:1;stroke:#000000;stroke-width:0.07499998;stroke-miterlimit:4;stroke-dasharray:none;stroke-opacity:1" />
      <path
         inkscape:connector-curvature="0"
         id="path832-94"
         d="m 30.724981,247.85784 a 0.71249996,0.71249996 0 0 1 -1.002105,0.10533 0.71249996,0.71249996 0 0 1 -0.105336,-1.00211 0.71249996,0.71249996 0 0 1 1.002105,-0.10534 0.71249996,0.71249996 0 0 1 0.105336,1.00212 z"
         style="fill:none;fill-opacity:1;stroke:#000000;stroke-width:0.07499998;stroke-miterlimit:4;stroke-dasharray:none;stroke-opacity:1" />
      <path
         inkscape:connector-curvature="0"
         id="path832-4"
         d="m 35.041713,255.18243 a 0.71249996,0.71249996 0 0 1 -1.001863,-0.10763 0.71249996,0.71249996 0 0 1 0.10763,-1.00186 0.71249996,0.71249996 0 0 1 1.001864,0.10763 0.71249996,0.71249996 0 0 1 -0.107631,1.00186 z"
         style="fill:none;fill-opacity:1;stroke:#000000;stroke-width:0.07499998;stroke-miterlimit:4;stroke-dasharray:none;stroke-opacity:1" />
      <path
         inkscape:connector-curvature="0"
         id="path832-49"
         d="m 40.40472,261.70562 a 0.71249995,0.71249995 0 0 1 -0.952588,-0.32845 0.71249995,0.71249995 0 0 1 0.328466,-0.9526 0.71249995,0.71249995 0 0 1 0.952587,0.32847 0.71249995,0.71249995 0 0 1 -0.328465,0.95258 z"
         style="fill:none;fill-opacity:1;stroke:#000000;stroke-width:0.07499998;stroke-miterlimit:4;stroke-dasharray:none;stroke-opacity:1" />
      <path
         inkscape:connector-curvature="0"
         id="path832-74"
         d="m 46.675701,267.2606 a 0.71249996,0.71249996 0 0 1 -0.843104,-0.55181 0.71249996,0.71249996 0 0 1 0.551805,-0.8431 0.71249996,0.71249996 0 0 1 0.843104,0.5518 0.71249996,0.71249996 0 0 1 -0.551805,0.84311 z"
         style="fill:none;fill-opacity:1;stroke:#000000;stroke-width:0.07499998;stroke-miterlimit:4;stroke-dasharray:none;stroke-opacity:1" />
      <path
         inkscape:connector-curvature="0"
         id="path832-85"
         d="m 53.690383,271.69663 a 0.71249995,0.71249995 0 0 1 -0.652243,-0.76804 0.71249995,0.71249995 0 0 1 0.768044,-0.65225 0.71249995,0.71249995 0 0 1 0.652243,0.76805 0.71249995,0.71249995 0 0 1 -0.768044,0.65224 z"
         style="fill:none;fill-opacity:1;stroke:#000000;stroke-width:0.07499998;stroke-miterlimit:4;stroke-dasharray:none;stroke-opacity:1" />
      <path
         inkscape:connector-curvature="0"
         id="path832-14"
         d="m 61.264294,274.86995 a 0.71249996,0.71249996 0 0 1 -0.338485,-0.94908 0.71249996,0.71249996 0 0 1 0.949072,-0.33849 0.71249996,0.71249996 0 0 1 0.338486,0.94908 0.71249996,0.71249996 0 0 1 -0.949073,0.33849 z"
         style="fill:none;fill-opacity:1;stroke:#000000;stroke-width:0.07499998;stroke-miterlimit:4;stroke-dasharray:none;stroke-opacity:1" />
      <path
         inkscape:connector-curvature="0"
         id="path832-51"
         d="m 69.225639,276.62214 a 0.71249996,0.71249995 0 0 1 0.1561,-0.99546 0.71249996,0.71249995 0 0 1 0.995462,0.15609 0.71249996,0.71249995 0 0 1 -0.1561,0.99546 0.71249996,0.71249995 0 0 1 -0.995462,-0.15609 z"
         style="fill:none;fill-opacity:1;stroke:#000000;stroke-width:0.07499998;stroke-miterlimit:4;stroke-dasharray:none;stroke-opacity:1" />
      <path
         inkscape:connector-curvature="0"
         id="path832-43"
         d="m 77.529144,276.83798 a 0.71249995,0.71249996 0 0 1 0.740612,-0.68323 0.71249995,0.71249996 0 0 1 0.683232,0.74061 0.71249995,0.71249996 0 0 1 -0.740612,0.68323 0.71249995,0.71249996 0 0 1 -0.683232,-0.74061 z"
         style="fill:none;fill-opacity:1;stroke:#000000;stroke-width:0.07499998;stroke-miterlimit:4;stroke-dasharray:none;stroke-opacity:1" />
      <path
         inkscape:connector-curvature="0"
         id="path832-32"
         d="m 86.140566,275.73782 a 0.71249996,0.71249995 0 0 1 1.004794,-0.0755 0.71249996,0.71249995 0 0 1 0.07549,1.00479 0.71249996,0.71249995 0 0 1 -1.004795,0.0755 0.71249996,0.71249995 0 0 1 -0.07549,-1.00479 z"
         style="fill:none;fill-opacity:1;stroke:#000000;stroke-width:0.07499998;stroke-miterlimit:4;stroke-dasharray:none;stroke-opacity:1" />
      <path
         inkscape:connector-curvature="0"
         id="path832-93"
         d="m 94.660034,273.55991 a 0.71249996,0.71249995 0 0 1 0.918759,0.41375 0.71249996,0.71249995 0 0 1 -0.41376,0.91876 0.71249996,0.71249995 0 0 1 -0.918758,-0.41376 0.71249996,0.71249995 0 0 1 0.413759,-0.91875 z"
         style="fill:none;fill-opacity:1;stroke:#000000;stroke-width:0.07499998;stroke-miterlimit:4;stroke-dasharray:none;stroke-opacity:1" />
      <path
         inkscape:connector-curvature="0"
         id="path832-60"
         d="m 102.73329,270.27398 a 0.71249996,0.71249996 0 0 1 0.71307,0.71192 0.71249996,0.71249996 0 0 1 -0.71193,0.71308 0.71249996,0.71249996 0 0 1 -0.71307,-0.71193 0.71249996,0.71249996 0 0 1 0.71193,-0.71307 z"
         style="fill:none;fill-opacity:1;stroke:#000000;stroke-width:0.07499998;stroke-miterlimit:4;stroke-dasharray:none;stroke-opacity:1" />
      <path
         inkscape:connector-curvature="0"
         id="path832-19"
         d="m 110.15338,265.87967 a 0.71249996,0.71249995 0 0 1 0.48218,0.88478 0.71249996,0.71249995 0 0 1 -0.88478,0.48217 0.71249996,0.71249995 0 0 1 -0.48217,-0.88477 0.71249996,0.71249995 0 0 1 0.88477,-0.48218 z"
         style="fill:none;fill-opacity:1;stroke:#000000;stroke-width:0.07499998;stroke-miterlimit:4;stroke-dasharray:none;stroke-opacity:1" />
      <path
         inkscape:connector-curvature="0"
         id="path832-95"
         d="m 116.75207,260.45176 a 0.71249996,0.71249995 0 0 1 0.25074,0.97593 0.71249996,0.71249995 0 0 1 -0.97592,0.25074 0.71249996,0.71249995 0 0 1 -0.25075,-0.97593 0.71249996,0.71249995 0 0 1 0.97593,-0.25074 z"
         style="fill:none;fill-opacity:1;stroke:#000000;stroke-width:0.07499998;stroke-miterlimit:4;stroke-dasharray:none;stroke-opacity:1" />
      <path
         inkscape:connector-curvature="0"
         id="path832-03"
         d="m 122.37783,254.11071 a 0.71249995,0.71249995 0 0 1 0.0267,1.00727 0.71249995,0.71249995 0 0 1 -1.00728,0.0267 0.71249995,0.71249995 0 0 1 -0.0267,-1.00728 0.71249995,0.71249995 0 0 1 1.00728,-0.0267 z"
         style="fill:none;fill-opacity:1;stroke:#000000;stroke-width:0.07499998;stroke-miterlimit:4;stroke-dasharray:none;stroke-opacity:1" />
      <path
         inkscape:connector-curvature="0"
         id="path832-706"
         d="m 126.89886,247.00707 a 0.71249996,0.71249996 0 0 1 -0.18562,0.99038 0.71249996,0.71249996 0 0 1 -0.99038,-0.18562 0.71249996,0.71249996 0 0 1 0.18563,-0.99038 0.71249996,0.71249996 0 0 1 0.99037,0.18562 z"
         style="fill:none;fill-opacity:1;stroke:#000000;stroke-width:0.07499998;stroke-miterlimit:4;stroke-dasharray:none;stroke-opacity:1" />
      <path
         inkscape:connector-curvature="0"
         id="path832-71"
         d="m 130.20783,239.31307 a 0.71249995,0.71249996 0 0 1 -0.38219,0.93232 0.71249995,0.71249996 0 0 1 -0.93233,-0.38219 0.71249995,0.71249996 0 0 1 0.38219,-0.93232 0.71249995,0.71249996 0 0 1 0.93233,0.38219 z"
         style="fill:none;fill-opacity:1;stroke:#000000;stroke-width:0.07499998;stroke-miterlimit:4;stroke-dasharray:none;stroke-opacity:1" />
      <path
         inkscape:connector-curvature="0"
         id="path832-55"
         d="m 132.22556,231.21676 a 0.71249996,0.71249995 0 0 1 -0.55915,0.83824 0.71249996,0.71249995 0 0 1 -0.83825,-0.55914 0.71249996,0.71249995 0 0 1 0.55915,-0.83825 0.71249996,0.71249995 0 0 1 0.83825,0.55915 z"
         style="fill:none;fill-opacity:1;stroke:#000000;stroke-width:0.07499998;stroke-miterlimit:4;stroke-dasharray:none;stroke-opacity:1" />
      <path
         inkscape:connector-curvature="0"
         id="path832-88"
         d="m 132.90357,222.91667 a 0.71249996,0.71249996 0 0 1 -0.71249,0.7125 0.71249996,0.71249996 0 0 1 -0.71251,-0.7125 0.71249996,0.71249996 0 0 1 0.71251,-0.71249 0.71249996,0.71249996 0 0 1 0.71249,0.71249 z"
         style="fill:none;fill-opacity:1;stroke:#000000;stroke-width:0.07499998;stroke-miterlimit:4;stroke-dasharray:none;stroke-opacity:1" />
    </g>
    <g
       id="g880"
       transform="matrix(1.0454543,0,0,1.0454543,-3.556393,-10.132526)">
      <path
         inkscape:connector-curvature="0"
         id="path1630-1-2-6-8-2"
         d="M 64.041043,222.91666 H 34.241057"
         style="opacity:0.95;fill:none;fill-opacity:1;stroke:#000000;stroke-width:0.1;stroke-miterlimit:4;stroke-dasharray:none;stroke-opacity:1" />
      <path
         inkscape:connector-curvature="0"
         id="path1630-1-2-6-8"
         d="m 88.288052,232.96364 21.065728,21.06572"
         style="fill:none;fill-opacity:1;stroke:#000000;stroke-width:0.09999999;stroke-miterlimit:4;stroke-dasharray:none;stroke-opacity:1" />
      <path
         inkscape:connector-curvature="0"
         id="path1630-1-2-6-8-4"
         d="m 78.241067,236.58703 -2e-6,30.32964"
         style="fill:none;fill-opacity:1;stroke:#000000;stroke-width:0.09999999;stroke-miterlimit:4;stroke-dasharray:none;stroke-opacity:1" />
      <path
         inkscape:connector-curvature="0"
         id="path1630-1-2-6-8-8"
         d="M 68.218502,232.93922 47.128368,254.02936"
         style="fill:none;fill-opacity:1;stroke:#000000;stroke-width:0.09999999;stroke-miterlimit:4;stroke-dasharray:none;stroke-opacity:1" />
      <path
         inkscape:connector-curvature="0"
         id="path1630-1-2-6-8-0"
         d="M 68.45464,213.13023 47.128357,191.80395"
         style="fill:none;fill-opacity:1;stroke:#000000;stroke-width:0.09999999;stroke-miterlimit:4;stroke-dasharray:none;stroke-opacity:1" />
      <path
         inkscape:connector-curvature="0"
         id="path1630-1-2-6-8-1"
         d="m 78.241068,208.98499 -6e-6,-30.06832"
         style="fill:none;fill-opacity:1;stroke:#000000;stroke-width:0.09999999;stroke-miterlimit:4;stroke-dasharray:none;stroke-opacity:1" />
      <path
         inkscape:connector-curvature="0"
         id="path1630-1-2-6-8-3"
         d="M 88.149902,213.00783 109.35377,191.80396"
         style="fill:none;fill-opacity:1;stroke:#000000;stroke-width:0.09999999;stroke-miterlimit:4;stroke-dasharray:none;stroke-opacity:1" />
      <path
         inkscape:connector-curvature="0"
         id="path1630-1-2-6-8-4-1"
         d="M 92.351165,222.91667 H 122.24108"
         style="fill:none;fill-opacity:1;stroke:#000000;stroke-width:0.09999999;stroke-miterlimit:4;stroke-dasharray:none;stroke-opacity:1" />
    </g>
    <path
       style="fill:#000000;fill-opacity:1;stroke:none;stroke-width:0.10000002;stroke-miterlimit:4;stroke-dasharray:none;stroke-opacity:1"
       d="m 79.241068,222.91667 a 0.99999995,0.99999995 0 0 1 -1,0.99999 0.99999995,0.99999995 0 0 1 -0.999999,-0.99999 0.99999995,0.99999995 0 0 1 0.999999,-1 0.99999995,0.99999995 0 0 1 1,1 z"
       id="path1077"
       inkscape:connector-curvature="0" />
    <path
       sodipodi:type="star"
       style="fill:none;stroke:#000000;stroke-width:0.10000001;stroke-miterlimit:4;stroke-dasharray:none"
       id="path4542"
       sodipodi:sides="8"
       sodipodi:cx="78.241068"
       sodipodi:cy="222.91667"
       sodipodi:r1="14.94588"
       sodipodi:r2="12.943514"
       sodipodi:arg1="-0.78539816"
       sodipodi:arg2="-0.39269908"
       inkscape:flatsided="true"
       inkscape:rounded="0"
       inkscape:randomized="0"
       d="m 88.809402,212.34834 4.377546,10.56833 -4.377546,10.56833 -10.568334,4.37755 -10.568333,-4.37755 -4.377546,-10.56833 4.377546,-10.56833 10.568334,-4.37755 z"
       inkscape:transform-center-y="4.1747665e-06" />
    <path
       inkscape:connector-curvature="0"
       style="fill:none;stroke:#000000;stroke-width:0.09999999;stroke-miterlimit:4;stroke-dasharray:none"
       d="m 122.17164,222.91667 a 43.911131,43.911131 0 0 1 -12.86128,31.04986"
       id="path4544" />
    <path
       inkscape:connector-curvature="0"
       style="fill:none;stroke:#000000;stroke-width:0.09999999;stroke-miterlimit:4;stroke-dasharray:none"
       d="m 78.299378,178.96666 a 43.911131,43.911131 0 0 1 31.049852,12.86128"
       id="path4544-3" />
    <path
       inkscape:connector-curvature="0"
       style="fill:none;stroke:#000000;stroke-width:0.09999999;stroke-miterlimit:4;stroke-dasharray:none"
       d="M 34.310501,222.87779 A 43.911131,43.911131 0 0 1 47.171773,191.82794"
       id="path4544-3-6" />
    <path
       inkscape:connector-curvature="0"
       style="fill:none;stroke:#000000;stroke-width:0.09999999;stroke-miterlimit:4;stroke-dasharray:none"
       d="M 78.22164,266.86667 A 43.911131,43.911131 0 0 1 47.171782,254.00539"
       id="path4544-3-7" />
    <g
       id="g886"
       transform="matrix(1.0460065,0,0,1.0460065,-3.5995998,-10.255616)">
      <path
         sodipodi:nodetypes="cccc"
         inkscape:connector-curvature="0"
         id="path3974"
         d="m 34.310501,222.87779 1.276418,3.08926 m 10.326822,24.99356 1.258041,3.04478"
         style="fill:none;stroke:#000000;stroke-width:0.1;stroke-linecap:butt;stroke-linejoin:miter;stroke-miterlimit:4;stroke-dasharray:none;stroke-opacity:1" />
      <path
         sodipodi:nodetypes="cccc"
         inkscape:connector-curvature="0"
         id="path3974-6"
         d="m 78.22164,266.86667 3.08926,-1.27642 m 24.99356,-10.32682 3.04478,-1.25804"
         style="fill:none;stroke:#000000;stroke-width:0.1;stroke-linecap:butt;stroke-linejoin:miter;stroke-miterlimit:4;stroke-dasharray:none;stroke-opacity:1" />
      <path
         sodipodi:nodetypes="cccc"
         inkscape:connector-curvature="0"
         id="path3974-2"
         d="m 109.31036,191.78907 1.27642,3.08926 m 10.32682,24.99356 1.25804,3.04478"
         style="fill:none;stroke:#000000;stroke-width:0.1;stroke-linecap:butt;stroke-linejoin:miter;stroke-miterlimit:4;stroke-dasharray:none;stroke-opacity:1" />
      <path
         sodipodi:nodetypes="cccc"
         inkscape:connector-curvature="0"
         id="path3974-9"
         d="m 47.171773,191.82794 3.08926,-1.27642 m 24.99356,-10.32682 3.04478,-1.25804"
         style="fill:none;stroke:#000000;stroke-width:0.1;stroke-linecap:butt;stroke-linejoin:miter;stroke-miterlimit:4;stroke-dasharray:none;stroke-opacity:1" />
    </g>
  </g>
</svg>
