<?xml version="1.0" encoding="UTF-8" standalone="no"?>
<!-- Created with Inkscape (http://www.inkscape.org/) -->

<svg
   xmlns:dc="http://purl.org/dc/elements/1.1/"
   xmlns:cc="http://creativecommons.org/ns#"
   xmlns:rdf="http://www.w3.org/1999/02/22-rdf-syntax-ns#"
   xmlns:svg="http://www.w3.org/2000/svg"
   xmlns="http://www.w3.org/2000/svg"
   xmlns:sodipodi="http://sodipodi.sourceforge.net/DTD/sodipodi-0.dtd"
   xmlns:inkscape="http://www.inkscape.org/namespaces/inkscape"
   width="210mm"
   height="297mm"
   viewBox="0 0 210 297"
   version="1.1"
   id="svg8"
   inkscape:version="0.92.1 r15371"
   sodipodi:docname="wheel.svg">
  <defs
     id="defs2" />
  <sodipodi:namedview
     id="base"
     pagecolor="#ffffff"
     bordercolor="#666666"
     borderopacity="1.0"
     inkscape:pageopacity="0.0"
     inkscape:pageshadow="2"
     inkscape:zoom="1"
     inkscape:cx="319.3451"
     inkscape:cy="307.86102"
     inkscape:document-units="mm"
     inkscape:current-layer="layer1"
     showgrid="false"
     inkscape:window-width="1366"
     inkscape:window-height="704"
     inkscape:window-x="0"
     inkscape:window-y="36"
     inkscape:window-maximized="1"
     inkscape:snap-global="false"
     inkscape:measure-start="31.9643,183.75"
     inkscape:measure-end="2.32143,186.429"
     inkscape:snap-bbox="false"
     inkscape:bbox-nodes="false"
     inkscape:bbox-paths="false" />
  <metadata
     id="metadata5">
    <rdf:RDF>
      <cc:Work
         rdf:about="">
        <dc:format>image/svg+xml</dc:format>
        <dc:type
           rdf:resource="http://purl.org/dc/dcmitype/StillImage" />
        <dc:title />
      </cc:Work>
    </rdf:RDF>
  </metadata>
  <g
     inkscape:label="Layer 1"
     inkscape:groupmode="layer"
     id="layer1">
    <path
       style="fill:none;fill-opacity:1;stroke:#000000;stroke-width:0.09999997;stroke-miterlimit:4;stroke-dasharray:none;stroke-opacity:1"
       d="m 138.19107,222.91667 a 59.949998,59.949998 0 0 1 -59.950002,59.95 59.949998,59.949998 0 0 1 -59.949998,-59.95 59.949998,59.949998 0 0 1 59.949998,-59.95 59.949998,59.949998 0 0 1 59.950002,59.95 z"
       id="path815"
       inkscape:connector-curvature="0" />
    <path
       style="fill:none;fill-opacity:1;stroke:#000000;stroke-width:0.09999997;stroke-miterlimit:4;stroke-dasharray:none;stroke-opacity:1"
       d="m 131.85995,213.58735 a 0.94999994,0.94999994 0 0 1 0.55659,1.22279 0.94999994,0.94999994 0 0 1 -1.22278,0.55659 0.94999994,0.94999994 0 0 1 -0.5566,-1.22279 0.94999994,0.94999994 0 0 1 1.22279,-0.55659 z"
       id="path832"
       inkscape:connector-curvature="0" />
    <path
       style="fill:none;fill-opacity:1;stroke:#000000;stroke-width:0.09999997;stroke-miterlimit:4;stroke-dasharray:none;stroke-opacity:1"
       d="m 130.35673,206.7478 a 0.94999994,0.94999994 0 0 1 -1.30875,0.30358 0.94999994,0.94999994 0 0 1 -0.30359,-1.30874 0.94999994,0.94999994 0 0 1 1.30875,-0.3036 0.94999994,0.94999994 0 0 1 0.30359,1.30876 z"
       id="path832-9"
       inkscape:connector-curvature="0" />
    <path
       style="fill:none;fill-opacity:1;stroke:#000000;stroke-width:0.09999997;stroke-miterlimit:4;stroke-dasharray:none;stroke-opacity:1"
       d="m 126.99871,199.07919 a 0.94999994,0.94999994 0 0 1 -1.34311,0.0325 0.94999994,0.94999994 0 0 1 -0.0325,-1.34312 0.94999994,0.94999994 0 0 1 1.34311,-0.0324 0.94999994,0.94999994 0 0 1 0.0324,1.34312 z"
       id="path832-96"
       inkscape:connector-curvature="0" />
    <path
       style="fill:none;fill-opacity:1;stroke:#000000;stroke-width:0.09999997;stroke-miterlimit:4;stroke-dasharray:none;stroke-opacity:1"
       d="m 122.42223,191.99089 a 0.94999994,0.94999994 0 0 1 -1.31994,-0.25054 0.94999994,0.94999994 0 0 1 0.25053,-1.31992 0.94999994,0.94999994 0 0 1 1.31995,0.25053 0.94999994,0.94999994 0 0 1 -0.25054,1.31993 z"
       id="path832-1"
       inkscape:connector-curvature="0" />
    <path
       style="fill:none;fill-opacity:1;stroke:#000000;stroke-width:0.09999997;stroke-miterlimit:4;stroke-dasharray:none;stroke-opacity:1"
       d="m 116.7355,185.65303 a 0.94999994,0.94999994 0 0 1 -1.23076,-0.53873 0.94999994,0.94999994 0 0 1 0.53872,-1.23076 0.94999994,0.94999994 0 0 1 1.23077,0.53873 0.94999994,0.94999994 0 0 1 -0.53873,1.23076 z"
       id="path832-5"
       inkscape:connector-curvature="0" />
    <path
       style="fill:none;fill-opacity:1;stroke:#000000;stroke-width:0.09999997;stroke-miterlimit:4;stroke-dasharray:none;stroke-opacity:1"
       d="m 110.07083,180.21277 a 0.94999994,0.94999994 0 0 1 -1.06129,-0.82382 0.94999994,0.94999994 0 0 1 0.82381,-1.06128 0.94999994,0.94999994 0 0 1 1.06129,0.82381 0.94999994,0.94999994 0 0 1 -0.82381,1.06129 z"
       id="path832-6"
       inkscape:connector-curvature="0" />
    <path
       style="fill:none;fill-opacity:1;stroke:#000000;stroke-width:0.09999997;stroke-miterlimit:4;stroke-dasharray:none;stroke-opacity:1"
       d="m 102.58072,175.78446 a 0.94999994,0.94999994 0 0 1 -0.78444,-1.09073 0.94999994,0.94999994 0 0 1 1.09072,-0.78443 0.94999994,0.94999994 0 0 1 0.78444,1.09073 0.94999994,0.94999994 0 0 1 -1.09072,0.78443 z"
       id="path832-0"
       inkscape:connector-curvature="0" />
    <path
       style="fill:none;fill-opacity:1;stroke:#000000;stroke-width:0.09999997;stroke-miterlimit:4;stroke-dasharray:none;stroke-opacity:1"
       d="m 94.437737,172.43002 a 0.94999994,0.94999994 0 0 1 -0.348029,-1.29766 0.94999994,0.94999994 0 0 1 1.297642,-0.34802 0.94999994,0.94999994 0 0 1 0.348029,1.29763 0.94999994,0.94999994 0 0 1 -1.297642,0.34805 z"
       id="path832-56"
       inkscape:connector-curvature="0" />
    <path
       style="fill:none;fill-opacity:1;stroke:#000000;stroke-width:0.09999997;stroke-miterlimit:4;stroke-dasharray:none;stroke-opacity:1"
       d="m 85.870464,170.12687 a 0.94999994,0.94999994 0 0 1 0.31426,-1.30622 0.94999994,0.94999994 0 0 1 1.306232,0.31426 0.94999994,0.94999994 0 0 1 -0.314261,1.30622 0.94999994,0.94999994 0 0 1 -1.306231,-0.31426 z"
       id="path832-7"
       inkscape:connector-curvature="0" />
    <path
       style="fill:none;fill-opacity:1;stroke:#000000;stroke-width:0.09999997;stroke-miterlimit:4;stroke-dasharray:none;stroke-opacity:1"
       d="m 77.297994,168.85215 a 0.94999994,0.94999994 0 0 1 1.057582,-0.82855 0.94999994,0.94999994 0 0 1 0.828564,1.05757 0.94999994,0.94999994 0 0 1 -1.057584,0.82857 0.94999994,0.94999994 0 0 1 -0.828562,-1.05759 z"
       id="path832-3"
       inkscape:connector-curvature="0" />
    <path
       style="fill:none;fill-opacity:1;stroke:#000000;stroke-width:0.09999997;stroke-miterlimit:4;stroke-dasharray:none;stroke-opacity:1"
       d="m 69.133407,168.95589 a 0.94999994,0.94999994 0 0 1 1.343481,0.007 0.94999994,0.94999994 0 0 1 -0.0074,1.34349 0.94999994,0.94999994 0 0 1 -1.343481,-0.008 0.94999994,0.94999994 0 0 1 0.0074,-1.34347 z"
       id="path832-2"
       inkscape:connector-curvature="0" />
    <path
       style="fill:none;fill-opacity:1;stroke:#000000;stroke-width:0.09999997;stroke-miterlimit:4;stroke-dasharray:none;stroke-opacity:1"
       d="m 61.305501,170.69463 a 0.94999994,0.94999994 0 0 1 1.176648,0.64846 0.94999994,0.94999994 0 0 1 -0.648461,1.17664 0.94999994,0.94999994 0 0 1 -1.176647,-0.64846 0.94999994,0.94999994 0 0 1 0.64846,-1.17664 z"
       id="path832-565"
       inkscape:connector-curvature="0" />
    <path
       style="fill:none;fill-opacity:1;stroke:#000000;stroke-width:0.09999997;stroke-miterlimit:4;stroke-dasharray:none;stroke-opacity:1"
       d="m 53.823972,173.89988 a 0.94999994,0.94999994 0 0 1 0.871299,1.02267 0.94999994,0.94999994 0 0 1 -1.022661,0.8713 0.94999994,0.94999994 0 0 1 -0.8713,-1.02266 0.94999994,0.94999994 0 0 1 1.022662,-0.87131 z"
       id="path832-18"
       inkscape:connector-curvature="0" />
    <path
       style="fill:none;fill-opacity:1;stroke:#000000;stroke-width:0.09999997;stroke-miterlimit:4;stroke-dasharray:none;stroke-opacity:1"
       d="m 46.870908,178.38348 a 0.94999994,0.94999994 0 0 1 0.545883,1.22759 0.94999994,0.94999994 0 0 1 -1.227605,0.54589 0.94999994,0.94999994 0 0 1 -0.545882,-1.22761 0.94999994,0.94999994 0 0 1 1.227604,-0.54587 z"
       id="path832-00"
       inkscape:connector-curvature="0" />
    <path
       style="fill:none;fill-opacity:1;stroke:#000000;stroke-width:0.09999997;stroke-miterlimit:4;stroke-dasharray:none;stroke-opacity:1"
       d="m 40.640353,183.99202 a 0.94999994,0.94999994 0 0 1 0.228537,1.32392 0.94999994,0.94999994 0 0 1 -1.323923,0.22853 0.94999994,0.94999994 0 0 1 -0.228535,-1.32391 0.94999994,0.94999994 0 0 1 1.323921,-0.22854 z"
       id="path832-8"
       inkscape:connector-curvature="0" />
    <path
       style="fill:none;fill-opacity:1;stroke:#000000;stroke-width:0.09999997;stroke-miterlimit:4;stroke-dasharray:none;stroke-opacity:1"
       d="m 35.30169,190.57123 a 0.94999994,0.94999994 0 0 1 -0.07262,1.34153 0.94999994,0.94999994 0 0 1 -1.341538,-0.0727 0.94999994,0.94999994 0 0 1 0.07262,-1.34154 0.94999994,0.94999994 0 0 1 1.341537,0.0727 z"
       id="path832-57"
       inkscape:connector-curvature="0" />
    <path
       style="fill:none;fill-opacity:1;stroke:#000000;stroke-width:0.09999997;stroke-miterlimit:4;stroke-dasharray:none;stroke-opacity:1"
       d="m 30.99589,197.9522 a 0.94999994,0.94999994 0 0 1 -0.352945,1.29632 0.94999994,0.94999994 0 0 1 -1.296314,-0.35296 0.94999994,0.94999994 0 0 1 0.352945,-1.2963 0.94999994,0.94999994 0 0 1 1.296314,0.35294 z"
       id="path832-967"
       inkscape:connector-curvature="0" />
    <path
       style="fill:none;fill-opacity:1;stroke:#000000;stroke-width:0.09999997;stroke-miterlimit:4;stroke-dasharray:none;stroke-opacity:1"
       d="m 27.834591,205.95015 a 0.94999994,0.94999994 0 0 1 -0.607982,1.19806 0.94999994,0.94999994 0 0 1 -1.198064,-0.60798 0.94999994,0.94999994 0 0 1 0.607982,-1.19806 0.94999994,0.94999994 0 0 1 1.198064,0.60798 z"
       id="path832-97"
       inkscape:connector-curvature="0" />
    <path
       style="fill:none;fill-opacity:1;stroke:#000000;stroke-width:0.09999997;stroke-miterlimit:4;stroke-dasharray:none;stroke-opacity:1"
       d="m 25.898829,214.36654 a 0.94999994,0.94999994 0 0 1 -0.833059,1.05405 0.94999994,0.94999994 0 0 1 -1.054046,-0.83306 0.94999994,0.94999994 0 0 1 0.833057,-1.05405 0.94999994,0.94999994 0 0 1 1.054048,0.83306 z"
       id="path832-28"
       inkscape:connector-curvature="0" />
    <path
       style="fill:none;fill-opacity:1;stroke:#000000;stroke-width:0.09999997;stroke-miterlimit:4;stroke-dasharray:none;stroke-opacity:1"
       d="m 25.237983,222.99312 a 0.94999994,0.94999994 0 0 1 -1.023365,0.87047 0.94999994,0.94999994 0 0 1 -0.870472,-1.02336 0.94999994,0.94999994 0 0 1 1.023366,-0.87048 0.94999994,0.94999994 0 0 1 0.870471,1.02337 z"
       id="path832-70"
       inkscape:connector-curvature="0" />
    <path
       style="fill:none;fill-opacity:1;stroke:#000000;stroke-width:0.09999997;stroke-miterlimit:4;stroke-dasharray:none;stroke-opacity:1"
       d="m 25.868886,231.61673 a 0.94999994,0.94999994 0 0 1 -1.174032,0.65319 0.94999994,0.94999994 0 0 1 -0.653185,-1.17404 0.94999994,0.94999994 0 0 1 1.174032,-0.65318 0.94999994,0.94999994 0 0 1 0.653185,1.17403 z"
       id="path832-701"
       inkscape:connector-curvature="0" />
    <path
       style="fill:none;fill-opacity:1;stroke:#000000;stroke-width:0.09999997;stroke-miterlimit:4;stroke-dasharray:none;stroke-opacity:1"
       d="m 27.77557,240.02421 a 0.94999994,0.94999994 0 0 1 -1.280077,0.40793 0.94999994,0.94999994 0 0 1 -0.407927,-1.28008 0.94999994,0.94999994 0 0 1 1.280077,-0.40793 0.94999994,0.94999994 0 0 1 0.407927,1.28008 z"
       id="path832-23"
       inkscape:connector-curvature="0" />
    <path
       style="fill:none;fill-opacity:1;stroke:#000000;stroke-width:0.09999997;stroke-miterlimit:4;stroke-dasharray:none;stroke-opacity:1"
       d="m 30.909555,248.0073 a 0.94999994,0.94999994 0 0 1 -1.336141,0.14045 0.94999994,0.94999994 0 0 1 -0.140448,-1.33615 0.94999994,0.94999994 0 0 1 1.336141,-0.14045 0.94999994,0.94999994 0 0 1 0.140448,1.33615 z"
       id="path832-94"
       inkscape:connector-curvature="0" />
    <path
       style="fill:none;fill-opacity:1;stroke:#000000;stroke-width:0.09999997;stroke-miterlimit:4;stroke-dasharray:none;stroke-opacity:1"
       d="m 35.190752,255.36735 a 0.94999994,0.94999994 0 0 1 -1.335818,-0.14351 0.94999994,0.94999994 0 0 1 0.143507,-1.33582 0.94999994,0.94999994 0 0 1 1.335819,0.14351 0.94999994,0.94999994 0 0 1 -0.143508,1.33582 z"
       id="path832-4"
       inkscape:connector-curvature="0" />
    <path
       style="fill:none;fill-opacity:1;stroke:#000000;stroke-width:0.09999997;stroke-miterlimit:4;stroke-dasharray:none;stroke-opacity:1"
       d="m 40.508741,261.91913 a 0.94999994,0.94999994 0 0 1 -1.270117,-0.43794 0.94999994,0.94999994 0 0 1 0.437955,-1.27013 0.94999994,0.94999994 0 0 1 1.270116,0.43796 0.94999994,0.94999994 0 0 1 -0.437954,1.27011 z"
       id="path832-49"
       inkscape:connector-curvature="0" />
    <path
       style="fill:none;fill-opacity:1;stroke:#000000;stroke-width:0.09999997;stroke-miterlimit:4;stroke-dasharray:none;stroke-opacity:1"
       d="m 46.72425,267.49309 a 0.94999994,0.94999994 0 0 1 -1.124138,-0.73575 0.94999994,0.94999994 0 0 1 0.73574,-1.12414 0.94999994,0.94999994 0 0 1 1.124138,0.73574 0.94999994,0.94999994 0 0 1 -0.73574,1.12415 z"
       id="path832-74"
       inkscape:connector-curvature="0" />
    <path
       style="fill:none;fill-opacity:1;stroke:#000000;stroke-width:0.09999997;stroke-miterlimit:4;stroke-dasharray:none;stroke-opacity:1"
       d="m 53.671083,271.93334 a 0.94999994,0.94999994 0 0 1 -0.869658,-1.02405 0.94999994,0.94999994 0 0 1 1.024059,-0.86966 0.94999994,0.94999994 0 0 1 0.869657,1.02406 0.94999994,0.94999994 0 0 1 -1.024058,0.86965 z"
       id="path832-85"
       inkscape:connector-curvature="0" />
    <path
       style="fill:none;fill-opacity:1;stroke:#000000;stroke-width:0.09999997;stroke-miterlimit:4;stroke-dasharray:none;stroke-opacity:1"
       d="m 61.162529,275.08454 a 0.94999994,0.94999994 0 0 1 -0.451313,-1.26543 0.94999994,0.94999994 0 0 1 1.26543,-0.45132 0.94999994,0.94999994 0 0 1 0.451314,1.26543 0.94999994,0.94999994 0 0 1 -1.265431,0.45132 z"
       id="path832-14"
       inkscape:connector-curvature="0" />
    <path
       style="fill:none;fill-opacity:1;stroke:#000000;stroke-width:0.09999997;stroke-miterlimit:4;stroke-dasharray:none;stroke-opacity:1"
       d="m 69.033711,276.76203 a 0.94999994,0.94999994 0 0 1 0.208134,-1.32728 0.94999994,0.94999994 0 0 1 1.327283,0.20812 0.94999994,0.94999994 0 0 1 -0.208134,1.32729 0.94999994,0.94999994 0 0 1 -1.327283,-0.20813 z"
       id="path832-51"
       inkscape:connector-curvature="0" />
    <path
       style="fill:none;fill-opacity:1;stroke:#000000;stroke-width:0.09999997;stroke-miterlimit:4;stroke-dasharray:none;stroke-opacity:1"
       d="m 77.291837,276.82842 a 0.94999994,0.94999994 0 0 1 0.987482,-0.91098 0.94999994,0.94999994 0 0 1 0.910976,0.98748 0.94999994,0.94999994 0 0 1 -0.987482,0.91098 0.94999994,0.94999994 0 0 1 -0.910976,-0.98748 z"
       id="path832-43"
       inkscape:connector-curvature="0" />
    <path
       style="fill:none;fill-opacity:1;stroke:#000000;stroke-width:0.09999997;stroke-miterlimit:4;stroke-dasharray:none;stroke-opacity:1"
       d="m 85.960518,275.58294 a 0.94999994,0.94999994 0 0 1 1.339726,-0.10069 0.94999994,0.94999994 0 0 1 0.100658,1.33972 0.94999994,0.94999994 0 0 1 -1.339726,0.10069 0.94999994,0.94999994 0 0 1 -0.100658,-1.33972 z"
       id="path832-32"
       inkscape:connector-curvature="0" />
    <path
       style="fill:none;fill-opacity:1;stroke:#000000;stroke-width:0.09999997;stroke-miterlimit:4;stroke-dasharray:none;stroke-opacity:1"
       d="m 94.575867,273.33782 a 0.94999994,0.94999994 0 0 1 1.225011,0.55167 0.94999994,0.94999994 0 0 1 -0.55168,1.22502 0.94999994,0.94999994 0 0 1 -1.22501,-0.55169 0.94999994,0.94999994 0 0 1 0.551679,-1.225 z"
       id="path832-93"
       inkscape:connector-curvature="0" />
    <path
       style="fill:none;fill-opacity:1;stroke:#000000;stroke-width:0.09999997;stroke-miterlimit:4;stroke-dasharray:none;stroke-opacity:1"
       d="m 102.7331,270.03648 a 0.94999994,0.94999994 0 0 1 0.95076,0.94923 0.94999994,0.94999994 0 0 1 -0.94924,0.95077 0.94999994,0.94999994 0 0 1 -0.95076,-0.94924 0.94999994,0.94999994 0 0 1 0.94924,-0.95076 z"
       id="path832-60"
       inkscape:connector-curvature="0" />
    <path
       style="fill:none;fill-opacity:1;stroke:#000000;stroke-width:0.09999997;stroke-miterlimit:4;stroke-dasharray:none;stroke-opacity:1"
       d="m 110.22048,265.65185 a 0.94999994,0.94999994 0 0 1 0.6429,1.1797 0.94999994,0.94999994 0 0 1 -1.1797,0.64289 0.94999994,0.94999994 0 0 1 -0.6429,-1.17969 0.94999994,0.94999994 0 0 1 1.1797,-0.6429 z"
       id="path832-19"
       inkscape:connector-curvature="0" />
    <path
       style="fill:none;fill-opacity:1;stroke:#000000;stroke-width:0.09999997;stroke-miterlimit:4;stroke-dasharray:none;stroke-opacity:1"
       d="m 116.87293,260.24731 a 0.94999994,0.94999994 0 0 1 0.33433,1.30124 0.94999994,0.94999994 0 0 1 -1.30123,0.33433 0.94999994,0.94999994 0 0 1 -0.33433,-1.30124 0.94999994,0.94999994 0 0 1 1.30123,-0.33433 z"
       id="path832-95"
       inkscape:connector-curvature="0" />
    <path
       style="fill:none;fill-opacity:1;stroke:#000000;stroke-width:0.09999997;stroke-miterlimit:4;stroke-dasharray:none;stroke-opacity:1"
       d="m 122.54126,253.93838 a 0.94999994,0.94999994 0 0 1 0.0356,1.34303 0.94999994,0.94999994 0 0 1 -1.34304,0.0356 0.94999994,0.94999994 0 0 1 -0.0356,-1.34304 0.94999994,0.94999994 0 0 1 1.34304,-0.0356 z"
       id="path832-03"
       inkscape:connector-curvature="0" />
    <path
       style="fill:none;fill-opacity:1;stroke:#000000;stroke-width:0.09999997;stroke-miterlimit:4;stroke-dasharray:none;stroke-opacity:1"
       d="m 127.09486,246.87294 a 0.94999994,0.94999994 0 0 1 -0.24749,1.32051 0.94999994,0.94999994 0 0 1 -1.32051,-0.2475 0.94999994,0.94999994 0 0 1 0.2475,-1.3205 0.94999994,0.94999994 0 0 1 1.3205,0.24749 z"
       id="path832-706"
       inkscape:connector-curvature="0" />
    <path
       style="fill:none;fill-opacity:1;stroke:#000000;stroke-width:0.09999997;stroke-miterlimit:4;stroke-dasharray:none;stroke-opacity:1"
       d="m 130.42692,239.22138 a 0.94999994,0.94999994 0 0 1 -0.50959,1.2431 0.94999994,0.94999994 0 0 1 -1.24311,-0.50959 0.94999994,0.94999994 0 0 1 0.50959,-1.2431 0.94999994,0.94999994 0 0 1 1.24311,0.50959 z"
       id="path832-71"
       inkscape:connector-curvature="0" />
    <path
       style="fill:none;fill-opacity:1;stroke:#000000;stroke-width:0.09999997;stroke-miterlimit:4;stroke-dasharray:none;stroke-opacity:1"
       d="m 132.45846,231.17024 a 0.94999994,0.94999994 0 0 1 -0.74553,1.11766 0.94999994,0.94999994 0 0 1 -1.11767,-0.74552 0.94999994,0.94999994 0 0 1 0.74554,-1.11767 0.94999994,0.94999994 0 0 1 1.11766,0.74553 z"
       id="path832-55"
       inkscape:connector-curvature="0" />
    <path
       style="fill:none;fill-opacity:1;stroke:#000000;stroke-width:0.09999997;stroke-miterlimit:4;stroke-dasharray:none;stroke-opacity:1"
       d="m 133.14107,222.91667 a 0.94999994,0.94999994 0 0 1 -0.94999,0.95 0.94999994,0.94999994 0 0 1 -0.95001,-0.95 0.94999994,0.94999994 0 0 1 0.95001,-0.94999 0.94999994,0.94999994 0 0 1 0.94999,0.94999 z"
       id="path832-88"
       inkscape:connector-curvature="0" />
    <path
       style="fill:none;fill-opacity:1;stroke:#000000;stroke-width:0.09999997;stroke-miterlimit:4;stroke-dasharray:none;stroke-opacity:1"
       d="M 64.041043,222.91666 H 34.241057"
       id="path1630-1-2-6-8-2"
       inkscape:connector-curvature="0" />
    <path
       style="fill:none;fill-opacity:1;stroke:#000000;stroke-width:0.09999999;stroke-miterlimit:4;stroke-dasharray:none;stroke-opacity:1"
       d="m 88.288052,232.96364 21.065728,21.06572"
       id="path1630-1-2-6-8"
       inkscape:connector-curvature="0" />
    <path
       style="fill:none;fill-opacity:1;stroke:#000000;stroke-width:0.09999999;stroke-miterlimit:4;stroke-dasharray:none;stroke-opacity:1"
       d="m 78.241067,236.58703 -2e-6,30.32964"
       id="path1630-1-2-6-8-4"
       inkscape:connector-curvature="0" />
    <path
       style="fill:none;fill-opacity:1;stroke:#000000;stroke-width:0.09999999;stroke-miterlimit:4;stroke-dasharray:none;stroke-opacity:1"
       d="M 68.218502,232.93922 47.128368,254.02936"
       id="path1630-1-2-6-8-8"
       inkscape:connector-curvature="0" />
    <path
       style="fill:none;fill-opacity:1;stroke:#000000;stroke-width:0.09999999;stroke-miterlimit:4;stroke-dasharray:none;stroke-opacity:1"
       d="M 68.45464,213.13023 47.128357,191.80395"
       id="path1630-1-2-6-8-0"
       inkscape:connector-curvature="0" />
    <path
       style="fill:none;fill-opacity:1;stroke:#000000;stroke-width:0.09999999;stroke-miterlimit:4;stroke-dasharray:none;stroke-opacity:1"
       d="m 78.241068,208.98499 -6e-6,-30.06832"
       id="path1630-1-2-6-8-1"
       inkscape:connector-curvature="0" />
    <path
       style="fill:none;fill-opacity:1;stroke:#000000;stroke-width:0.09999999;stroke-miterlimit:4;stroke-dasharray:none;stroke-opacity:1"
       d="M 88.149902,213.00783 109.35377,191.80396"
       id="path1630-1-2-6-8-3"
       inkscape:connector-curvature="0" />
    <path
       style="fill:none;fill-opacity:1;stroke:#000000;stroke-width:0.09999999;stroke-miterlimit:4;stroke-dasharray:none;stroke-opacity:1"
       d="M 92.351165,222.91667 H 122.24108"
       id="path1630-1-2-6-8-4-1"
       inkscape:connector-curvature="0" />
    <path
       style="fill:#000000;fill-opacity:1;stroke:none;stroke-width:0.10000002;stroke-miterlimit:4;stroke-dasharray:none;stroke-opacity:1"
       d="m 79.241068,222.91667 a 0.99999995,0.99999995 0 0 1 -1,0.99999 0.99999995,0.99999995 0 0 1 -0.999999,-0.99999 0.99999995,0.99999995 0 0 1 0.999999,-1 0.99999995,0.99999995 0 0 1 1,1 z"
       id="path1077"
       inkscape:connector-curvature="0" />
    <path
       sodipodi:type="star"
       style="fill:none;stroke:#000000;stroke-width:0.10000001;stroke-miterlimit:4;stroke-dasharray:none"
       id="path4542"
       sodipodi:sides="8"
       sodipodi:cx="78.241068"
       sodipodi:cy="222.91667"
       sodipodi:r1="14.94588"
       sodipodi:r2="12.943514"
       sodipodi:arg1="-0.78539816"
       sodipodi:arg2="-0.39269908"
       inkscape:flatsided="true"
       inkscape:rounded="0"
       inkscape:randomized="0"
       d="m 88.809402,212.34834 4.377546,10.56833 -4.377546,10.56833 -10.568334,4.37755 -10.568333,-4.37755 -4.377546,-10.56833 4.377546,-10.56833 10.568334,-4.37755 z"
       inkscape:transform-center-y="4.1747665e-06" />
    <g
       id="g4619"
       transform="matrix(1.0991522,0,0,1.0991522,-7.7383389,-22.102678)"
       style="stroke-width:0.90979213">
      <path
         id="path4544"
         d="m 118.19107,222.91667 a 39.950001,39.950001 0 0 1 -11.70109,28.24892"
         style="fill:none;stroke:#000000;stroke-width:0.0909792;stroke-miterlimit:4;stroke-dasharray:none"
         inkscape:connector-curvature="0" />
      <path
         id="path4544-3"
         d="m -182.9313,78.276436 a 39.950001,39.950001 0 0 1 -11.70109,28.248914"
         style="fill:none;stroke:#000000;stroke-width:0.0909792;stroke-miterlimit:4;stroke-dasharray:none"
         transform="rotate(-90)"
         inkscape:connector-curvature="0" />
      <path
         id="path4544-3-6"
         d="m -38.255703,-222.8813 a 39.950001,39.950001 0 0 1 -11.701084,28.24891"
         style="fill:none;stroke:#000000;stroke-width:0.0909792;stroke-miterlimit:4;stroke-dasharray:none"
         transform="scale(-1)"
         inkscape:connector-curvature="0" />
      <path
         id="path4544-3-7"
         d="m 262.90203,-78.205711 a 39.950001,39.950001 0 0 1 -11.70109,28.248916"
         style="fill:none;stroke:#000000;stroke-width:0.0909792;stroke-miterlimit:4;stroke-dasharray:none"
         transform="rotate(90)"
         inkscape:connector-curvature="0" />
    </g>
  </g>
</svg>
